<mxfile host="app.diagrams.net" modified="2023-05-06T02:40:39.217Z" agent="Mozilla/5.0 (Macintosh; Intel Mac OS X 10_15_7) AppleWebKit/537.36 (KHTML, like Gecko) Chrome/112.0.0.0 Safari/537.36" etag="37rVN-AQR0AKcjZZUDcI" version="21.2.9" type="github">
  <diagram name="第 1 页" id="8b4yyho3hVogxQCsT8fc">
    <mxGraphModel dx="954" dy="591" grid="1" gridSize="10" guides="1" tooltips="1" connect="1" arrows="1" fold="1" page="1" pageScale="1" pageWidth="827" pageHeight="1169" math="0" shadow="0">
      <root>
        <mxCell id="0" />
        <mxCell id="1" parent="0" />
        <mxCell id="iGm5vL-j-1q0A82nJxlu-2" value="" style="shape=image;verticalLabelPosition=bottom;labelBackgroundColor=default;verticalAlign=top;aspect=fixed;imageAspect=0;image=data:image/png,iVBORw0KGgoAAAANSUhEUgAAAXIAAABeCAYAAAA+PZ/wAAAAAXNSR0IArs4c6QAAAIRlWElmTU0AKgAAAAgABQESAAMAAAABAAEAAAEaAAUAAAABAAAASgEbAAUAAAABAAAAUgEoAAMAAAABAAIAAIdpAAQAAAABAAAAWgAAAAAAAACQAAAAAQAAAJAAAAABAAOgAQADAAAAAQABAACgAgAEAAAAAQAAAXKgAwAEAAAAAQAAAF4AAAAAiSUHZwAAAAlwSFlzAAAWJQAAFiUBSVIk8AAAG2dJREFUeAHtXQl4FFW2PixhJyRsIQmEsIZFdgFx34KCCiiCK+iIgAoqiriMOvp8M6Of41NH8TlmxA1h9IkCigsiioqsiiwG2SEJYQuBkLAkEOCdv7FC9a1b3dWd7tDVOccPu5Zbd/lv5dS9Z63S/dFFJ0lIEBAEBAFBwLUIVHVtz6XjgoAgIAgIAh4EhJHLiyAICAKCgMsREEbu8gmU7gsCgoAgIIxc3gFBQBAQBFyOgDByl0+gdF8QEAQEAWHk8g4IAoKAIOByBISRu3wCpfuCgCAgCAgjl3dAEBAEBAGXIyCM3OUTKN0XBAQBQUAYubwDgoAgIAi4HAFh5C6fQOm+ICAICALCyOUdEAQEAUHA5QgII3f5BEr3BQFBQBAQRi7vgCAgCAgCLkdAGLnLJ1C6LwgIAoKAMHJ5BwQBQUAQcDkCwshdPoHSfUFAEBAEhJHLOyAICAKCgMsRqB7u/p/TqgGNTm9OPVvFhrupsNe/YmshjcrIDHs70oAgIAgIAoEgEPYVebQwcYCKj9H4y1MCwVfKCgKCgCAQdgTCzsijYSUe9lmQBgQBQUAQKAcCYWfk5eibPCoICAKCgCDgAAFh5A5AkiKCgCAgCEQyAsLII3l2pG+CgCAgCDhAQBi5A5CkiCAgCAgCkYyAMPJInh3pmyAQwQjEVKtC7ZvWpoR6NSK4l5Wja2G3I68cMMooBYHTCFSrWoUS6sdQjWpV6cCRUiosOU7HT5w8XSAKji5Oi6cnr29DDevFeEazbOMBevzDjbT30LEoGJ37hiCMPELmbNJVqVSvVvim41jpCfrr7C0RMtro6kavlPp0da+m1LJJLUqMq0lNGtQgMHODTjIPP1RSSvsPltLPWwpp8boCWry5gA4ePW4UcdVvEo/v2ZvbUa0a1cr63addA3qKGfu9764ruyYHFYdA+DhHxY0hKlq6oltjasSruHBRyTFh5KHEtlb1qjSA5+yGfomUllzHZ9VVmKfjI41/LRrXomv7NKX5a/bRQ9PX+3wuUm/2bRvnxcSNfp7TLo4gbjl2PLp2H8b4IvlXGHkkz470LSIRSOQVacboztS8Ua2g+3d6vR50FWfswWKbncTR4ydcI0Kqzl/XUmyVooSEkUfJRMowKgYBKPZeH9WpXEy8YnoavlYWbiygXftLqFl8Ta9GZizeRZGqCsBO4eyWsXRehzjq1z6O5vySR2//uMOr/24+EUbu5tmTvlcoAo3qxNDrd3ZiWXht23Y37zpMm/jf3qKjVHz0JCXE1aBEZnjJ/E+VndtWEuE3ioqP09h/Z9L9A1tSN2aOhYdLPYzx3Z8ikzG+PCKNerdtQHVMMv0q5OY9kfUFEUZuxeSMXLlt8mqqalKQ6TqBuDVPD29rufX3T7bQEl4l+aKTUbSN9DXOcN67p38LapWgZ+Jf8ArvvR920Po9h2270LB2DN1yXiINO7eZbRm33MjmFfnEaRtc0d3zO8R7KZ/R6ZP8XzSRMPIImc3cwqN+e5JapDftyufrOQUlfp+XAsEjUL9mNbqyR2NtBa99lU1vfp+rvWe+uO/IMXr1m2x6+4dc6pxcz3xLjgWBciEgDkHlgk8eriwItG9W12trbow7Z2+xIyZulMcvzA6Xbj1gviTHgkC5EBBGXi745OHKgkASy7p1tGj9ft1luSYIVCgCIlqpULilMTMCUAnAkqAl21Y3i6tFVaqcZCXhMY+y8JfsopCYstVke+/erFtIYVNB2OmXlJ6kTTsP04adB2n7Af/iLKO/J2x0DNXZe7OiCZYzPVNjqVFsDMWzAjamehXad/CYR8GalVdMmTy28lqPtG1cm9on1qFS9llam1sUEFblxSOtaR1KS6rjeSfq1armGVtufgktYieqQzamj+Vt0+3PCyN3+ww66P+NfZvRI0NaWUp+vGR3QN6eTevWoC//3NOilP3rjM308S97yur/39s7Ur+0uLJzHMCFe+xbaz3XYMM78vwkuv6cBEps6G3CZjxUcKiUPvhpJ73F8uRgHExS2Erknv4pdEGneK1IBO0UHTlOyzYdoGdnbaH8w3r9g9Gf9Tv0SswereobRcL6W5ctLm46pxkNYDl962a+HZD2FBylBWv30bOfbbX0yd/cIHbKI0NaW1Iz3j55Da3KPVhW35Jn+lLNGO+P2OtzcyhjwfayMuaDURcm0/gB3tm1StlxqPcTS8qKpXduRLdekERdW+r1B0fZO/mbVfn0zy+zac8h+4/wir/340VBWbXag/vY4gb/VBrxymr6bech9XLEn3vPRMR3VzoYDAKfr8pjUzirO/jFnRuSH0MZr+bSuzayMPFDHEfkqzX5XuV8ncCEL2N0J7p3YIotE8fzcXWr011sJfLBvV2pWYAer/dc2oJmPNidruje2JaJo436tavRZV0a0gf3d6N+rRvgki1tyT9C8I5VqXVCHbo3zOn/ruvZhD6b1JPGMSP0x8TRv6YsBhrWL3DLmC5J9ei98V0tTBx1+mOMKBMs4cP+2DWt6Plb29sycdRdg3dXA3s1oRkTu1NfzgUsdBoBYeSnsYjaI9j9zlu9zzI+iBp6pThPig1GrtI3q/Mdb3fr8apyyl2dqUcAibjBKN8YcxbF1/a/eYTTx3M3tPMk+47hP3qn1JhFFK+xffidFyXbPgJRxfLNegXlHZcl08QBLam2skK1rczhDcRreezqVvTksLYUX8//+B1Wqy2G3daLt3WwrLK1hUN88W88Z8MDMMnEB/jl29Ooe4uK2Q2FeLhhqc752x6W5qXSikLgk2W7tU1hReqEECipa0vrH84sm3p1dT55XRuLM83eQjadZMsPGxG0p5oUlqH/6WJ7Jmu09fjg1p5VuHFu/GIl/TMz4ffZznsae/PhGNt0M2HFeTfvACAbtqPnZ2+lw5qdDcrfemESzXywBw3swrsWP9t6u/rV60/weIaf53tljWBocEKCKKo8dOsFiYQPWkXT8N4J1L+b9wLhYHEpbeExQfRiRwjYNenqVLvble56eD/zAcC5Ymsh/bqlKIAn7IuO4hWSL7Jrq0frU4wqGhNGr8wp8ij52rICy0yXsFzy+c+3+VWOXdG1sWV7DQaycvtpuam5XvW4W2r9stVe4eHj9D8sv13CcnND1hnLAaWwXX7k2lba4GHDWJ4Ohxu7MKmDezShwb2bqs1SZs4heuKDDbRtX7HXvY4sZ37uljTCR8IgOGSNuzKFHnhfH8wKtvqTv8imhzX6BtQBL86/3dyexvKHaRr3dfaveaxc9f5gGG35+x3GDG4IB9fSERjdG/O2e3YIm/ccKYsZ0rhuDJ3NGI7m978V72ScUm1mikP6JJQV37mvhH7lv0d4qDbkXdu5ir6jrGA5D7DjmDgo1VPLCd7yvPVtLn3OmGXvL/a8j9hhdWZxz0Rm2GelWOXmnfjaJWkN6bv13rvN8VN+9+rZ5FEdLe/urGV7eJea71UOJ1nKe2IpEKEXIoaRg4lPZmeJUBAYso4ZT5mf67iN8Sz39PdBCEVfK7KOmbx6njTYW+kJeWrX5vUJjN4X9WdGrtLsn08rONV76rmhGANjfXTaOosVRCEzp3m/59Nq7sfLvMXv0LyuVxVYgWFV/g/+6KgEkcb9A1PVy7R6WxGNysgsY3TmAr8zkxrzRibNfrhH2QcG96E3wJbdDo//LN1Fddg5CAzfTm6Mj8Nj17Xm96c5Tf4yiz5btdfctN9jeIBOuNqqiMODWIQ8xXG/dRY3+Mh99dte+jpzLw3uqf8I6BrvYlIuYsfyIvfZbPXy0ldZHNUw9Jt34Ae5Nyxu/jx9o8W2HkpuzMMdGb/RX65tw6GCm1i6PzY92cLIYd1iJlgcVVMmK3vvEY8VjLmcm49DPzsRiAYYeI/HFjtm4hE4hJB0ac7KvVqF3eV+xCupDWtZGCu29J+vCIxBQcTxyPtWJm4e3O6DR+npjzZpRS1D+yYQwseqhNWrKkNGW0/P2KRl4sbzaAuWMSqNvDBRveR1PoUtaSa8vc5j9eJ1QzlpyuKoZ25sR+/e1YWgSHRKI1nMYY4LYjy3kj9MoznGiY6JG2XwCyY802RFZL7n6zjjm+30whfeTNyoL9idha/2jHvPzdpqYeLGPfyCoT8zczPBGkelNPaQFcUnkfWvQkXK5eeBrMJdPlS/3ceqd75mO3kpi1d8UX+Ou63S92sLCC7ngdDU73eQk1AEiFeCeN0qYVXfQom4hzJXaVZqX6zIo6353uIUtT6cz9WslluxHbM/+mHjfrrp5ZU0j83h/BHM6d4ZdxbdcYFvkR/qgbjhOjYzVAny4meZmZlXymqZ8pzvYZv6N21MB8tTr79nf+FEG/My/WMIZv72An0YhNZsMlnZKWJEK5iIc2xMipbYuDPblTdPqi9xDcQnBkEBBrJryyjn9l8oPWHCZSbYcmPFuGaHXt7dX2Ot8ulyvfLUXK96PH2RdfWrljHOP+cV5eVdrYrYZN4dbMw7YhTzWLO0S/QWw+Dm4vV6C5OyB/84yGF5sEpJjAcUlv6YJj5KD7P8vdfiWJp0TUtOMGG/6ob8HSaX7dnR5emPN1Oxjey8S1Jdj1mk2ifsHDawPDxcNP3HnUHZ65e3Px8t2uW4itkr9tDDLBpUpCSE+arsFDGMHPJoO5n03RlrLQzWiQwb8kQd6Z412sYz/2ZFUrQSPCZhEaDaI4Np6hg5HETaKA4oiEX9kyKH9IcX0pzt5/yVTmm7jdIJjNxM3TjNmvqHjfuQ/Q9h+2snBDGMIcNHechtm3Iuyl02QcrUOn/JKqSbX1tDF7VvSLddnERQ7NoRbNuR5/Iudo7SfSjObqO3j16wdr9dlSG5/pVmZxKSiv1UssVHtEj10SM8T5Cnq5m0koWRU8QwcnXSQnFux5ANpq1rA0rS18d00t2Kmmszl++hidekeo3n0rMa0UscxU8lpKBT6VMO2apjQmo583kWK5cCoe1sIQKTRJVJq6uvxjbOQg/9YQ0RSJvmsimNajtm5HgOeMB6Av96c9iBCew1CKsKHSE29sjzkuidhdb43UnKh8p4PhCGZzzj9BemmNAXVDQhIbVqTeSvDzt4B6Uy8qR4Ea1EvYzc34tRGe/PYfkxVqFmQtqyjhzhT6V0xVoFzHX2z4GLVQoCzK4O0UPJMas3an0lQXUce4qGg6CoDJaW8wp9xL/WsHXJJk66YB0D6r37ihaE3Y5KcXVOJzQ27gW6mzGec/q7S6NEdPpsecodKj4RsDinsNiql6nHDkKVnaKakdttUyGqqcxUwErPbzXKxHTFegXyWiQLNtNSTmCxI4BgU+ZnAzmuz8GSzFnajWd3KnHXsaoLB1VVtwIBNoJufboyj+55M1PLzCG+GXS21USwvsaDtYjnK5yU5yAWfjjbD6TuJvWtH9hdyjsRSH3RUjaqRSt2kwSFJswRp4zprLU3t3sumq5/zErPAT29xSaXslfiK/NyyoaZrhGrzF6eV3Y/nAdJDfQKrFyOeWKmbBvLFFgrIRlwsLR+R2gCJ2VyAKan/28Tvcgu5Sp1bG4VvRzicAoqJbGlTjiTBR9nixC3UEKc9b3ItXkH3DKmUPQzqhk5ZOGwRrGzRIGzCEin/AwFuJFcBxR0W3cf8UpdhlyUCCEK8z9YbaQzYzcT3MDns9NOMNSQQ68GQol2jFyxMoFjh44WsElbpESxW7hpv0eUZVaoos9pvONRrWP2a1ztq7OHYyqLvjbZjFU3fjdcq1erqscvwM6CRx0DHL8a1LGyrFzlnVCfqwznUS1awQSOTm/udx5houhZofMqrjLRTI0J4eV/MO8e7N2oZkn/kmXrwYSUBaatE7xFNP5w7sMKQR3lcFxqMyF3pC5OS4dkq7zf/FxFHgOzbXusNu112UM0nr04zZRlMq00X++keLqa77n1GCaZbX0kslbH1a+Nd2hk437uPv3H3LhfGX6jnpHDCgUiFKc255Cf25ktRtsLAaWnGjzq0rNO2W7rnIB0jN8pJvVYSQmZuxNC3JVBmjgjiB9uxGYx6oHH4W6NjLRPO/0fvfFcoL9YOQdLiBnSSvMhg5PPfsWpyi6J9pj0FK1Xa7B9ipTnetuYW+r6N+KiJN1l2sbJNAIl6CiiiaJrNDYzY5gUOmHoEMMYIheb6qLmMuy6v/vN24MS9uVwyYc5oplWZx30csQx33N6PGlQa0eRAYezKz5Wqyp9tHineslzvjrb6siEkLsIqBQqGsRBuZAcIRiGPoB3OTrGASWdqqtdt/swbdfIfGErPfoS/56hoRpvRdWDEMDIeOSPEP+mu8Y+H2ELoIcIlJrE+m8z0DrPZPlKwcgNgANh6FCWVQb6ZKnVlPAGTkqghjT9LAiTQxU/BGe6j1eWvpghnHjGprdQH/XENZnK3oc6em1uFiH2i0qPD23tMyytuTxc44f2amrrRFSDg0Yhw830cd08ZZBCzgld3D6enhjaRlt0vk1Cjne+0797Izle+l2cNAOKT18UxzuaBzk+uhsIO7X/Gt6GsAuzI+zkXhhhVRaj/L++Pq2ct3s+n0MlqwRe4Os9VMtH+rmztzHSRxFg/5wwdF+u/QE2F9HFl20rJFUuO5RDxpoJWYC+1MRoMZdxenwbryoz7uxMHTjMqvGHhN92LCt98MqW9BQnUYByTyVE5YPZpI4gJ5++0Mrk4Tjynwnd6CF2zrFjFGB6g9jbcuYD3emJ69t48kTq2jCupSXX8fRx7mO96IWb0+gmTqN3NnuXIrUcsh9BWXwuy3Jv6ZdIH3J2o5f+1IFzalr/zGDHbxcjfjaLvDZqrGaAy1jW+bw/riudz6IjtGemFmzRgf7MfKgH3RhAogZzHWfiuC+P5cP7To3JHBQtkW35h7GJZsbYzhYnIPRzOafpW2oTvsM8jmzF0gn3WiXUpgn8vkHsBUIqPcSSDzQblefhCPif/WcwAjoX7i4YDF0XAgBtY1Xuyws03P2rqPpnc2zm+646vYJTGQ8CbZU36S3c+uPZNR2WG71ax3oYLNLPZeWVUHKjGoSVmR3BWmaaJkqhufybvIq9mlfUqtcfmN8tnAfyZs4Rij7ksNgij13vk+JreJJcwF0+GIL1BJJyOE3MYW4DeokH313Pcbe9FbdGmVLW3j7EMdGnju9GsRoHIXxMXr2jo6c4nIWgI2jeuKYXhrodilF/pPwiBvl2tjhB2F8o1jEmj7cnx5SBPb0vpywouF93sBrHWLdxfTqfkhGcDGQ47z5hvpjMVkF4N0e+ujogj95IwdK6VIiUnlVgP3STXIHNn/GmZrPLva8/fLj0l5eyOdnCc5zk2Exw+AFT8sXED7P33wPvrqODNpl5jPpwH+FvdblJUQbSCAQH69OuAV3F9vNINxcsEzfaDOYXCs6Hp27wGwsbTH7CO78TGLUvQvhexG73haGv58/kPegHJk1d5zVnEHEhto8/Jv4Pztb0q58Y+sbYpvJuTvVkNu6BeUMvpJqGGvfd8hvVjNypBYqRGUidNLvrajm3nyMc7YJMfVAmBNiyS7IQ6LhnscjgFcS7VjV8NhVB6TduSqbj9hey1+mYN9Z6Vt42Vfq8jHjX60yZ4s2F9/IqXrXwMd93crxu+yHPR+n7DXqs1TrAqEZOXkVrWNEcKIXL4zXQfvgrj4iOE9/b4DhVHT7s/83RI5Hgwynho5gRxYHwgIP9ftYpShFeDhYoMD2EPTlEKSr5inaoK68+Hy3nUHqmK7kTMbZPfw6tJ+fbvDrKzDlIYzk/ph2+cPCYw7uEdziBg1NnEWMeEMFxyIsrCZYv2DYjhowvwhZ9MX8APlmymxas3+/Z2uvKf7tuHw18dgUNZvFN77ax1IXzl+osa9RnwXjmrsoj4BuMgxKSSIzkuC2XdWxIEAV04UBcsL+2I6RpQ+amWSHYRdm1EerryOhzy6uraMKAVM7QFK/VKcD09Nvf8j3ilGACfL31Yy5tYYsgZF6C45uOMFeHWR/kRop6Ro5JgUnhkozT8anNNuV2Xp/mMpEysT9uKvA4LoWjP8jbqBLEAHM4h2KoCQrWZfyBhZljR46DjlyXx5mj5nPMj63sEIM0bOUh2JZPZZk6/rVk2Wv31FhqxCZucXWr8zb+BO0pLKE9B47R7gMltJPbRMINJ5R/+BiBIeAfRACpXHfLJnWoOYtsYlnxWDOmimdlmfdH/fgFIw5Fdp35v+9jr9p9BOVsb16YJLCMP57HgxRmu7iN3byb2FlQzDHLD1tMGs1ju4fFNaGgc/6yNBTVlNWB+D2I7Y40d935I9mM34laMdVob9FRgpnmiqwin9meyirycbCAd0ILXyqgjpy3Fh/45g1rU/XqPGccGjeHwyYv3XIgaIc3H81WyK1KwchVJO2Yt7mcE49Qc3m3Hw/tZw3g9D3HwAbzChchhGmgYUwD7UsWb6uz9of+YwTRxWYW/eBfRRIsd5DbNFoJYj7sfsJFUCSvYYsg/IsmimoZebATVdmCacFs7Vy2d1ZplsaFXy0j54KAIHDmEXDFilxnVeJEEelZVc87BbK/VThEKWinMpgbqq/d9Ww3rvqYwFRvEYtyhAQBQSDyEXAFIwdzDYbBGnbimAY1fsqvW4rI+BjYKd0if/rK30M4s9x0njVrfMb87T5lreVvWWoQBASBUCHgCkYeisGqzFo9D0UbbqsDIpXnR1g9D9ezCR4S3QoJAoKAOxCoNIzcHdMRvl7CpTuWs+5s5hjkKWx+dW77OLqgYzx7W1pfgRfnsK03m+UJCQKCgDsQsP4Vh7jfEGlE0+oXiSrcSBcx076e7ar9EQI2wTxQSBAQBNyDQNitVpDJXpVPuwce754i9oo/pan3E+46m7F4F/3z62x3dVp6KwgIAuH37ATjMzvjCOaRhwDirEzjELGvzhMmHnmzIz0SBPwjEHbRiv8uSIkzhQDcnhexW/prc7MpR5Nl50z1S9oVBASBwBCo0v3RRaLWCgwzV5aGS3lTjs+dUP+U6zNc4YOJWeFk8Ei6oIYDgfI0FK7qTtqXMpGHAJJhxLA7vEpHOC67UPkRkBV5+TF0RQ1wKd/J8SzwL9wkDDvcCLuvfrjGlx6TNWO4Zi7sys5wdVzqFQQEAUFAEDiFgDByeRMEAUFAEHA5AsLIXT6B0n1BQBAQBISRyzsgCAgCgoDLERBG7vIJlO4LAoKAICCMXN4BQUAQEARcjoAwcpdPoHRfEBAEBAFh5PIOCAKCgCDgcgSEkbt8AqX7goAgIAgII5d3QBAQBAQBlyMgjNzlEyjdFwQEAUFAGLm8A4KAICAIuBwBYeQun0DpviAgCAgCwsjlHRAEBAFBwOUICCN3+QRK9wUBQUAQEEYu74AgIAgIAi5HQBi5yydQui8ICAKCgDByeQcEAUFAEHA5AsLIXT6B0n1BQBAQBP4fEbCy1SBvtawAAAAASUVORK5CYII=;imageBorder=default;" parent="1" vertex="1">
          <mxGeometry x="239.93" y="80" width="314.89" height="80" as="geometry" />
        </mxCell>
        <mxCell id="iGm5vL-j-1q0A82nJxlu-3" value="" style="shape=image;verticalLabelPosition=bottom;labelBackgroundColor=default;verticalAlign=top;aspect=fixed;imageAspect=0;image=data:image/png,iVBORw0KGgoAAAANSUhEUgAAALIAAADCCAYAAADtqJipAAAAAXNSR0IArs4c6QAAAIRlWElmTU0AKgAAAAgABQESAAMAAAABAAEAAAEaAAUAAAABAAAASgEbAAUAAAABAAAAUgEoAAMAAAABAAIAAIdpAAQAAAABAAAAWgAAAAAAAACQAAAAAQAAAJAAAAABAAOgAQADAAAAAQABAACgAgAEAAAAAQAAALKgAwAEAAAAAQAAAMIAAAAAlUvViwAAAAlwSFlzAAAWJQAAFiUBSVIk8AAAORxJREFUeAHtXQWAVUUXPjS7dMfSnRLSHdIoKCAhGIhgJyL+ioqg2IGKYqASAoKgpCAqLd1Id3ezNP/3XXjrfXPnvth9b/e+xzu6vHun78yZmTOnJtl1gEQg0gMh3APJAMlDuP2Rpkd6IK4HIogc1xWRh1DugQgih/LoRdoe1wMRRI7rishDKPdABJFDefQibY/rgQgix3VF5CGUeyCCyKE8epG2x/VAyrinW+xhwdb9sv7gCTl8JlaugpOeLTqNFMueUSoXyCE5M0Y7qjd2HTstq/ccle3Hz8jJC5ckVfLkkhdtvC1vNrm9UE5HtTWpGnMLIfJ1eXP6cpmwca+sOXJKkgMZUiRLJvjfAIqFruGfq9euS7Y0KaV0zszSrHAuub9aCcmfNUOijs+G/cfkh2VbZM7uo7Lh8Ek5e/WaJEdD+edqL5op164xXKRirizSrXwheapB+URtp5MqS3YrSPbe/mOlvPH3GkmeMoWBvL4OwFUg9sXLV6VanizySJXi0qNWaV+z+p3u3MXL8tmCf+XH5Vtl44mzkjZlSgNJfS3oCjA7DRJ/0rKKdK9ZytdsYZGOkr2wRuTj5y5IrSHTZNeZ88ZqlpBRI6KkxAr4Uv3y8lzdspIhKnVCiovLux9I+87stTJk6WZJhYnGVTchcAWTrw5Ijpk9m0kK7Dq3AoQ1Iu85flYqfPqbXAzCSJ6/eEk+al5FHsUKHZU6ftQZJ9nbs1bJh4s2SXQ8y/D0aTlSpZB1L7aT9GlSeUoWFnFhi8hXQFPmfWusnMOvHXCFTZsimWRKk1pSpUhu0McXQEacAJJel2RYzUCP2mVGODWtUmD1G92pnrQuU8BDSmvUd4s3SY/fFkl0Ks+TgHWQZk+B38xpU4HcSAEaOZlcvIJ24tDHQyrbaQf5sGts6tvBLjpswsMWkct+9KvsPHVOO1DcbEtkSSeDW1eT2sXyatNMX7tLBi9YLyuPnZFToF09bffAMymZIa3Me/ouyeBl9dsLMqL6p5PkJCaAJ2B0JiBuA9DmT9QuK3VK6Ns5dc0OeWHGCtlz5oLYzbrWxfLI2G6NPFUX8nFhiciDMLD9cWgiR0IFrmr7XsIK5WEVU/Ms3XlI7h4912B7eUI/cjyGtakhnW8vphZhvA/4fbkMWLABrDNru1wZOGFKZ00vY7s0kMJgBfoKh0+fl0IfTtTi8kXsSlM615fmZf3bNXyt2wnpwhKRs785WmIVkoKrZosC2WVCj2bx7vez2MqrfzFFdpyO1SKMq+BqQMA/nmglKW8etM4gX43Bk2UnaGI74ArcFPzgn+9vJKlBPsQHSE5V+WiibDlrrScnaPAdr3SMT7EhkSfsEPnJsfPku/W7LQtuiWwZZCW2/kDA1qOnpcW3M2Rf7CVbhObKuu35trLl8Cm5Y/iftqQJV/gqQPzxD94hOTNEJbh5V8BViX59lCEwMRd2GTP5m1ZV5YEaJc3BYfMcdoicY8AYOY+DkBmygW7d/b97zUEJfqZRzS8rt0sHTJxokCs6SAVkJivMjhw5D9p70aMtpHqhXLrs8Q47f+mK5B30sxB5zVAyc3pZ8Vwbc1DYPBORw4bROGfzfjl7+Yrb4FzGCtW/cQW3sEC8oN+kfeWicvCVe6VCNj0te9kGiUlLtwTynnq9S8CRmN9GVt5DtxUCF8b9S1ceOSlbDp10Dwyjt7BB5KemLLFs4THRaeWh6sHbTnNB32Hh03dK75qlJVbZCXQ4Qjr2kxZVZNxDd0jGAAlUdPV8fHctiU7pPrRRkBR+MH+9LnlYhLl/bYh+Ele53VD+MQPDHq1ewhwUtOf+zSvL5E71PZZ/HUvkikdbSq9EEh/XiMnqRtZgE5Ele495bGMoR4YFIlNAwIOOGSjc6FKxiDkoaM8HwLPuMnau5/LBdmsz4k/obriTP54zxT+2f6OKclnh3myBFl24Qlgg8sx/97itPhysIhBSJIbW2m6oVuYdOFauQDroCcg9PnDhsmTmgRQHvWBDFWjuZVFE3xexK6zafSTYVSdJ+Z57P0ma5H+l0zfstmRqVCzGEhboACJxwUHjJBq6zCqQtMH/FiBrLgN43ecvBR+Z84NTYQbWPRt62OEIYYHIM7cdsoxNZQhAggmHIE0r+I49EveHltydEC0ToVWgzkS6N36S2CCTGbkzuvOmqZcxd1dkRVbHwxHvRJT9UPQxwyXQy6WDqAx/FqRBqfcnSHSUdSVmOz5oUkn6gO03tmtDuddGoYgKQyWxmqt0rPk7EvpcHwc+8rJdQPJmlwcJoytdKP6G/IpM7TBVe4FhOdKnDdp4VP74V7lkozPxUdPK8gT0lV3wY6d60hXWGzo4hsNYw88n66ICElYieyZYkfyHyCz0QpB3gYA0PB6FhDwi67Zusroypg2M4rvap7U+myJ7IZ7WwVswNepV22pFMrR9bekCpR11wrGMFdCb7jbib11xCQ7LkymdhU6/fMWdu5PgShxSQMgj8g0fjCqKXJcoL7q+8en/1sP+EErI1No4mZ6GKdSzDW+zLfabe+tKq6J5LPEsa9yWfdJv2jJLXEIDMoP0UYXkKpsyoXU4JX/oIzJ6UkUs8uJSQmk+kNBr/Hz5Y8chi/SQdn0dS+aTQXdW81rdWGi3Vc2RyZKOKqdvQ/X0m0UbLXEJCUgN6Z47YXHDwDYhZTo1b8gjsl3HKqShXTKfwidDgX3Emp1QzXSfHKyjDpTff7ivgU/lMNHsJ1tLHo2iETkZT09ZKuv3HbMgn8+FKwk5ydxbrCQIo9eQR2QOlLrq0Gb+UoBowX2gYTuOX2iYGKnjnj0qlcx6rJUa7PV9zfP3GOZKasLkEKo0APkSC8FJIODcRasUkQpP4QiejcZC4ItvDAxR2TRAeAyUwKHghxMkjUbZ/RI4Dn3rlZPXZiyHNYr7erATomCKzQnZwD3Jnu4/fi5p1lK5s8hr4DO/A3LC1GojPZWPKoGTsan3PcZ7Qv6hgauKuC6F/4SU68S8IY/IlFapwLBTNpwFNa3rnWypQ7D+OA2J2+ytB2QtnKT8CiV9HRIzT2qsnn1mrnRlj9evteU3dhcqQJWCTnGDInmkQv7s+M0N49PUhgsCf6yi90MHRKGGYIHiPuni1XAHZgp5RNZZEdOfw7Hz9o4AKIQ4htVq+d6j8s3CDbJo/3E5BMRPAeTkwSuOFtZMksQYQ6LaHpAXI/7dbfxRSZ7cBrIVBROuO3ShH4LqaCkcHElbp9fQ3GznDojQ1YluNzET47uCWUfIIzIHSl3ZaODpUusk0UE94MOwZftq7joZCMRNhnj6T4tDWKQJhm+JQA0cvydV8pu2fFAEGrNpn/FHBCfrLwoT8HUIYR6uXUaigNhp4dOCsAymVqoRbtTNuEC1zSnlhDwisyNr5cwk/xxxV1Gkbd3g2WtkLEz7V9DX283V1ckI6y9S3LDITiYUcbw+b73xB7yWC1evyoeNbpPjMHw1A5GexrHhCGGByDUK5LQg8qcmnqwLiQM5gC7WFnd7F+ikjK44tQ2kXZlVXTFd6eP7y/nKVfnVuVZrELa1Yky2+Bbt6HxhgchFYSUdbOhbq5SUAbehZuHchiJOeiALEZE0qgts6U8gFxX9zSTQBXAn+H4Ov+QkLNt1WN77a7Ush1MYczpX2YH6tRJigSo5acsJaSeGz05YKKPW7ZIzQBLdoc9b15LGvIzDU+FM0VIpZxaZtOOgwY1Q8zXOl10mPdJMDQ7KeyV4Sdqs8ZJEF1+PVyoiQ1dsk1gc/Ojmi3S+v8ByCmdOJx83rSQtbJSZ/C0zqdODxRh63jhPgxvRbvQcmbVlv6TFwUfdsu06lasnuRVXYC7fFVbGbWEGVRD6umWxykalTiW9xs2XEZgU6mpI8/pLA7sZiGNXdiDD94DTUOCd8VARdVd6Yvs/vKOiPIZDHXWhd508J5vBr54AtwQTN+yRZOgLkhS+Avng5IS0hZrpRKibhjKEFCJTwvbstKUyHoe3dGA3cWC9AdPEgq3WqEguqQeebAOY/9Qv7u5HjWnmbNorDX/8U+tUcEGPplIxfw5vVQU0fviSzdJLYxXOSXXg5Q6SW+NRfw1YifPg1f4vfMuEzfsMpSl1Uto18jz66CE4NP+6bQ1J6cdksCsvscNDApEvYPDem7NW3sWpnKJnf6AUttDlz7X1moWeO0+hHjMQwWvhYDSrZ3NzcKI9l/lgAvw6u1uGs/KiUM1cAy9GnuBf8MWbw8PRMT+EQuzZc9jthsB/3WN1yngq3nFxRGT/iaxE/IxVWGUywr7tnfn/ekViOutTYTe2YG/w/K+L5LjGGDQlJk1SITHbvPDxVnIetL8Km06elZ9XblOD3d7L5M0qpzT6GiQn7IATl7aHz0Dknu/tn2Uj7lcJJXAkIsdidXzs53lS9avpBm1qtw6z8zk45XNllnnwn6ayv44CQT1516FjwqHLt1hYYCzn53a1knQcMwOpPseBTAVOsIfGL5CrHpByDkiLi6B/zUAuyW8d6qCvsnh0JsMD5An0W+nBk+QdXFkRKuA4ROYtS9GvDJfh0HOgPoMOiMBE7mrY+i/jILYIq1dN+AGOVug7ssN+XbdTV4QRVvmLqXAxa62jLES/zR1wou9Vr6yk0fRBMnxXT3Bs7GAwPAqph+Bi4My0rFAYfdVSrr11v+QH2UWTMDugTeGb2AnT9hshXFicDtZRTMIWr8RhJbeNZbKrWRQg1AYCn+1/n8xW6FdVoYZpp2896Mrq9jsbhyKe/FUgZ2MhPAI5AchfXvFEa0tTiH7DwIbbcki//c8/cMLCfakQ425VvhFnhwsDukpuD7aNXCyot5Kd3v8djsyOQeTFcKhd7evpHllIJbCqbHvhbvlDQWDXSHeAB3qVvFgCOlsHXX5Z6KZrwTSU1vWpUUJSO0gfoRCEPfRcrwJF7Y9MXKQGG+8q0tGZYxuFW+PKuA33jJzDolBQwwlxpeFvDiAzrcedCo5A5LngCdf77g9Jrdnm2XH0zLMULlhXPn+35PDgR/gJbMVERjNcxPsUWHiY4WtwQE5qDkP50qWVga2rm5M64nlKr5ZaEmMBJumf4CGb4ZM/Vxu6F+awyzg0tvLisX4NXM6OBw2tO2CyLK7OuXAIPOlBq9BcZ2I/Jzkib4Wr08bg4Zo10cydUA603NF+naRMnqzmYO1zYdC2OdK6+5ognT14yRa39C9gsEF1uAG5Hu9qDlduiby8zMUh6/Exc6QoWGeF3xuPv1+kCPxf9AE9u3JP/B2jsK3PVS1u2W34bU+bjFY5hw3tPqWdlXHAy4xJ6glIxrQoV1BOvtZJsmFHUronLmu+d8cL9ZydBkmKyBvB76z05VTbQ91bcHKyGLRcNi+DYO7UnIp3HcatO3g8LsnA6cssCMHIapDwtatUNC6dPw/f4lBUBAPcZMRf8v2/e+UgDqyHz13E3wU5dDZWPlu1XWp9PUNKA8Enr3bfHXytpx/c0fIGKhU244KdMcs2G8G0PiF3QoUmpfOpQbbvmaDAv/vVTlIFnCAdMnO/K/fJpBu60balJH5EkiLyI5MWAamsH006t1/9cvIsTIn8hX7QySVNaIYjICP+xtW91EvujwtpVKDE7Ms2/pMUJ4CoVXCX32O46OYQtlyuatRqU4EchOSIoI50e7DOmn3zO8TlVoRT86nvn7eobLAbzeFclV/8Y7UR9AM0/tTupAf/LmULmrP49DwbnKAONr446Mmp6+g5PpWTWImSDJGfwz1zi2ExrAJZQr2BjH0bVVCjfHq/B9YTUQqtTQWb/rjCdyBufNKx9NqXygeTohw+le9KdAAcj8qfTZYNEJ3rynSlU39JQs2Dn+Jan0/12/db+8rFpChILRUOYxINBxL31ZheZQMb7TaYS8UHvocvjjboGxU4WX6CXgoliE6BJEPkkWt2WrS3eFBrA8d/A5pVTlD/lFfoaS6Sa6FcPwDWISrwIPlh66pqsMd3sujuwIU4R/wQAZsLZHv+hXLQXTjgqiuoOZ3u+eu7qlkEGpwcj+HC+LOa7a0HdCgSAqM615fyGmV844qHifa87ITUGZ+8SYLIL09eYrnvg43PD45EIC43fAp33ani2AtAvrRYmVXoAbq4gM09IGpa1/srUOjZBvG3v0joyu/6nQcD1x9NBgCucE+/9Urkk6rKRHWlV6ka0stdIQRJKCx66k5oylm/dgX41eOgfecEsI5sIrRqNIwqVckTzeAndKoXkNo74oTvy4edhy7ym36u/rug+P6VRqwdn4ZTYPMiDp+8i88f+Lj57Zbbq3T5ebNUuQBZhEy8t47FjxxJqh9Xedb70LUrGGG+jHfA6z2gudSwNpTXy/tJp3pqmI62U9M/clthyaOhOdV05vcv4YvC/oY9c0rfns9goZuxYa9viW+mqgVxfF0fEDSh7ERzo1pCZM9rhVVYi1XZCZDoiDwUlszqyZ5b4LtNKga0P57GbU46VpSrEpIeA1pWcb36/Dtj20GLkpHPmTUJuSqPjsf2/CaU7Eku2QF3uPa3FbKLjld4R5xfyKs2w26wF3nwTWpIdEQmi0qFa3BvVcvmgnM1ra/vdSCSLeJBCtiqYE7h9WL+ADXONgXhQpmZ2/f70wwjbYMSMVLJg61iTViWxyhXL/hdiZLhk/Z1LJLT1ClSyC+rk55OtmKV0vhAvy6BhAt60G7FFvFze3fL7OGlF1ZlZQExUvPcMjQe9PheCB8uaA49HprgU9RZTORT8RD9kruj3nDKCvnNXwDpggHpNXoo6nknGPV6KzPREXks9Crc0ZgaVmqIt2b7Fl8D/FOdwv3V69cki2IT50uJlyjECEZTMbHZJn+hKs4Ul69YVSxpi5cPClbBAGUNMlQL/oTWYlJDoiNyR5AQ6iqpM+kJRMeMWr1Ty3Kj8vhimN/7C5mgx3HDsbi/Ob2kxyqfFjeT+gvfL9tiGM6q+fh903BlWzAg9rL7hCNbjneVJDUkOiLnzwLJlILJl3AwuY5VJNDgiTXUcfQctRleq8+JVS47LK4DDQVxJ2A0Ln/3BzihBvy91naDeGbqUn+K8yntP9sPCkbKLS0lsRXyJL3Tl0RH5DY4ScMdn1tnpAVy/O/3FW5hCX0ZvniTXLEdZpET0K9YHo/LE0vgEBVoaFEiv99FfjaPbED3fjQXcg4ItinAl6gPQZ+q9DBJotIafWlzWxLjOdERuTwsFdIpJkkkkSfBYiOQ8C0sKG74RtOXygF5EHaB/sJDkJSpUkN/yzCnJw3/ULXi5iCfnt+dt84jG5DfPhhpAgmToKaqHhFywrYwp5/cn0C2yVVWoiMyK84AVUEVtkL5ZvCcwHR8LPQn5vlAA28+dV4W7fSPVr4Pugsx0db2q9/j63vFrOnF38stPwMv/qjGMECtc8jizR6NVNX0nt574q5tnZi6Oe5PcQIkCSKPuruGRdWSii/94T2TqpYJhQ+g6ZYGpkDegKvWU7/+4y2ZWzxvixrUpLKWG+KW0IcXKh991a62of7pQ/K4JB9CFdXOECEuER5SYcGg0/KEwn4IPH7SHB6p/vo61G2dAEmCyLWLx0jVvNYDAnm0hWFRkVCYADKFEjMzZMGgqmGMXwX3s39jy/QHOkOX435YU6j2gf6UQQkZ7+WrAsGMP/D+rFVyQMNzzobvU828OFG/v6l0708d5rQnUFcMrF101Pi9ZfJLkZyZzcmT7DlJEJlfO65zvbh7Nsxffzz2omQfMMYiCjWn8fR8EYpAq+Hg2gyYH9IMd1OPheKLClR8eea3xWqw13fem9cOEzK+0BskSu/G/ovlP160ybIac8uf1b2JVIQXIhXIgoxvZ9INQFY4yKFrABUuQojz5h1WvxtqusR6TzJEzgvxKR3o6YB6AtkGjNZFeQ0bDJaUquhOi5H+LatKUyiJq9YjLHAjVDLHQqPNH6AQZ2S3hvImDF510jW7snj937e4k+9N6EArm4ZdlrjwZ3DX3wnccaJC8WzppQRMkz66x+pUJgVIrFmwjvEXuCBEvzHKli04AotCSQdwK1zflWSIzAaMx/10dpef8zTP1cBfAcRwqIiqJAT9peXLkt7w0TDrgcaWbZJb8JOT48d3fQGr6mE4FnwYpAZvclK3d34nV0z475UXsQofgT1cZ9ySGh/4AVYZKvuLk37yTW+a1QrmsMTTwcuYdbv9qm4/RPHZ3vpZuxKzoDa4wbVzAPSc/WqUl8RJ7h+Zh7sCMDM/hQHRQRpIqd7AgeJp0JO+QJY3fpJLJhUtkhX3lysgQ0EKuCDqtVEWDTym6w4l+y9wEI0v0O/DYazuC3cflsOnYo27SmKgR1KjQA7DjUFCrhWuDBdWGzVOwCvCaHbBYy3jmlzlo4myAdwYM2QEMh94rbM5yPa5P9xkfYTD5BVTH5oTF06XRtb1aW8OSvJnx3jjpDf3IriO65QNx4Krc20gw69dGkhmeMZxP8b9149/YQttMWq2Gw3JFWsN3ESVM3na2Yb7pMvjcnRVeYm05L6X2ns1nf+vxsR5osuEikOmWnaSS9j+j2GFzwhergumr98l7cbOdyNbaECw8em7pCSQ3g6uoJ9qwdfeSjgvVEkzV54isGZf26ed69Uxv0TkJCUtXD3BW4i29e0gXDl0SMrtcTkMVXmR4pCbVtC6U/TbcD+rKiDFYJDNSMw6i+bILJXgA0Mt4zqI1i6j57ia5ZjfO4bNtLSVO8gTVUu4ITEb3AIW06mVe7h5PcQ4Dz7wek1YKOmwk62HXaMtEmMBcSISuwbJEYjMxkThUMLtr1RW/X0gRDoaez4P0/vsoJ2HLbUezjZCqKJOhMqwPNHBFJzy6dnSDHybgYvTFwaA92ouNyHPI+H0m+4MVIgGsr5vc5F7aovkFJbbO4+oRci7EKwke/lHGbFqBy6h16MCWYyNwSJcC9daTgZ965OwxcueuUva8+BkQ2ZQEBCLuCcnL5bUr46Qn9fujGvtadCoZqD/hU7gdeogC7bJO6GcrvKCuXq1HTNXlyXRw3gbaze4TVCBh8cBTSpJKgVhXem6wx8FV2wzLN93Q9XyCGj4oZgcyV4cJm/C4xKtoZX5HJftGgqh8eokTHqnQ5If9uw66Hec0HtgEI+Dl+m+brrn4HjxegX6ppgKsbQ5LU39T7/RRSsSd5WSe+AY4zId1zt/idwPw0btc/hCS0po+fXvMkfj+6Mwtvl1HlbI3XA1UPzj39zOCtQP6VWxsHyBnSwawhNPQM5LXkz0SeAqlbPZ0TzlT+w4x9DIug9vjlV57ysdpQY6EouwLTCKF8dMU5CYGcrCzF+n12EubAj4y+rqTxbXcBya/LVuNpeb0Gdq5v2t8SRKJ4O/dGvksfgCIM8yp3EXYpD2/R73r3hCYi4K3KLvLZ1ftuPQGwpI7OoIx5EWroa5fv96pJlM7lQfPM0UFjLAlcbuNxqDOQ5acOSK2AE9EzUCR0SFqxjVHGALYnFKdDiHnaTK51MsPGE2pHf1Erbch6sgpc6Anp6zdb9xg5U/DecuVBsCjiOvdpThnev7k9URaR1LWuh6ZwU01arDw4/dyVqXh2EcJNKVn9xRQR6rf4MfbRYsHD1zHkg7Tnsfdd8aJYUOBBMTuo78WybCJEwFKumchy9jHoxdwG9jeDdcfjMVq3hKMKLsaF5XHvWX0s794A1n92Csq+Zx0jtJi5BCZHYeJX0bwOssC4+QabDiqlI8XzqYpkApcep/6vbiUqdwTmlcKr98v3ijPDZ1maU8Hpr2920vWUy8Wl/qiG8aipNbghdOaaMZiLBr4PGnONiGGw4cl/egPPTL9kM4E+DSSzTSPbU5p/6Z5ZFuPgryLbG+Td+ShIeGJCK7PhvjgOsALgvdV30Jt61ETn+BZdAVK/Omg2LMKZSnQwiG8dBoXsX9rcuX9CfgijYnBEO6HQdNlSjQufRlQSTE4Gnb6q0eCkfuhauEr0GuZYqHAa638pMiPqQR2dxhX85ZL73/WmUOCvhzZtjUZcdJPgO87XAFbFMoF25eTSHFTH7jiGyVYdnMyaECaddtEDgQGLsK3AgKb6btOmLsAjxYHoGb2pMKC9HIEKB/uALPwkGxfsmYAJXojGKIyP8RW85oU7xaYXbk7SqAommuuOlwSLSilSuV779EMDOSrcb27lrRzaWQ96oFrKBmasG1useHNNKWbwokzXsZapYUjJgV8FnnajhODDdE5qeHBSIv0Jg1vQsrjnvK5JNZOCBOB0/6N2jFJcOq6s99zSbcsDwaCGjQIQox4j+FYynb3wBOnVhyZuB340U4R29cJLfcDp8e946eK4tNLDw6G6eoPxwhLBB5AzzBm1ceLooFMkdLUVgv8K/XTR/BSyF+ngTW1CL8HoCG2Hq4v+Ldyzqa1KmDTWEFOTBXQesWh2pqffgJKQr/xa1B96qeNwvAzQDlgq6pxjm2AZK9cISQR2T6VTBv2RwketrJq7k/riouVeefC86BLp2C1Xo6Vu2dQOrjOGwdAp16FOHchql/kAQLrNE8Iiy/jb/5QZuTPudl6g2h90BF+jYVirg+w/a3ApSjRq/f4zbJL3rgqdsWFAIRoY/IJFQV4OBnifpPtVGJjntNB1FtRyi5888MvIhx25HTMhq+f8dvsTfe5OGJ7EByEMzgon8ZxoOfpokGr9eW04JPeub2otIEplRlca90nng6IyyIFZscjv/WZF55bC8cMn9DqD2HPCJfJx2hAJHLm2hayeL2WhzXefGPYvJFH06UvZrtmNYg83s0lRqFc8v2m9wIVyHk8xo0KwLywDtRHsWWjjvIAuwCj0xaYhFeEPHugt7Iu21quoqL9y+9jaq9w0NgOELIIzK9Flk4qhg9ncFkfAZwE25azQfe7glFlZL3XDf9fpZs7X2PFIGQwgzquzmOz2twAOuF6yeUhdxIxmvSxsKAIBDAXUk1FeNuFY6QVCRgcPsSg0XJXaBgJ8S3aVRCHIVfBSaWhwmSP3AKmnrVodWmQ6csKZPLHFwLFiggn1uFG6SGGhr67+GJyAEeFx76psNimuSECmdxeIqBcpEvcBpInBuru5mGduWjyumCACIxy9VNlsBNb1fLnfEb8ohMssIiScNKSS8+gYTqRfLI162qaq9zoKCkEG4+9QTUaOP1t1okhtLPQlwUX9AkJfRUlq9xF1CuCiniIcpXy3Die8gjsmbHNw7p1AgLNHSvVVr6Q+BAyxMVjsAjTykcDHVwEW0p/P4vWlcB1J2YBnP+mhBiBBqOg5WoclTM/PZA15eU5YU+ImswmaveCXgsCga8iusO6MNCd2jaA+5G5cGT3aq9BNKjGEz0qRCvAsv4FBe5t4BpUjBg98mzFh47D6nhCCGPyLxch0rwZmDYwdOx5qCAPn/VsZ40sfHZxstyan4B030gKb2ClgASnwBtrDTRaM8TuJL3yXjct+3rx6w/eNJCyqTR3AHia3lOThfyiMzOrQTGvxm4fa6G74pgwuSHm0pZsN10h6e1h09KI3Amyn06SY6C5NAhcUvclfdh2/g7g/Hl2/6BPwyzUhJZ7hWzZvQla8ilCQtEbob731RYCoFDsGHJE62kMK+SUICIuwQXjh8EjaoiMdm4dWFaNc6L3Z1SZLxeD8PyxQxkvdWDIUE4QlggcutyhSxjMysxfFOAFl/7bFuJyRhlQVhLgxBARKoFr6C/YzVPDNilXORIHZTGDnHMHejvDwtErqJx3ncGSLN056FA95e2vM0v3CNVvLDOuDJ3BBLN6tFMW0agA3+C74rLynaQHWqseRUyLND1JlV5YYHI5CWrbCXqHX+9fGui9CvJhYp5PF/RRU22ynBuzrSJAW/O/9fSJ7T3C1cID0TGietu8GFVHPl2WfARmYKODK+NlO88+FYj8nCivYyrJYp5EZwEAtHo3HAnXMOagTrMHaCMFK4QFojMwaG2mKpHQHdQD/48P2hjNwKW17kGjZPrGl62XaUHwd/OBt91C6DgHywoAwtz1ZkjkfvJuuWCVWWSlxs2iJwD1hCZNa6gxsA33Ba4DwgknARLrdonv0mPKcss2mWuevLj5qf00NHQAaV5jX/8S5p9NU0XnaCw2bg/5cBZKw+9KSxIUkApKVwhrL7sg8YVDDMg82BxZarzzQzD2sIcHt/nHljhC773i6zH1q3S5SyTDrLvhnPEDX06yC54si+dLQN2CmttbNe8AyckJ66YGDhjpTVBPEIOA4Gbj5xtyUkXAP0b3mYJD6eAkHPQ4q3z82GrPwFTJTMQj3LgxL4E2mW54EHeb4BqxXNTFst3K7YargB0ij8skxpsU6A30QoibDN8AfetT05bZnsfB+nXnPAx8TS8Gr3YqII5q8/Pq/YckUbfzhSdYL4mrExm9Wrhc1mhlpDuAMIOkRfjvuTa380UnU4BbyL6sElFecbHaxxY1pClm2Xk6p2Gab0dKUxErIrLaMbAeyXvKtHBaijT8/7rXWcuWPQfXOlZTlroUT+IKyB6wvyqbEw2V5Tt71WQKa/DZ/Rb4FLwTKDCeUzqPS91kHy4mDJcISwRmYPVc9x8+XHNTu3WT0UdWiA/DERpAgvkwlih02G1prDgOGhf3tMxb9tBmbpxj5wAknhyH8CVnn4s3gVJ4+vk+B88Iw2C130d0rkQjeXGoo35QPO3LF1A6hTJJUUxQXgGoEk/nbmwnTNBD49cs0Oi0qTWisrpZfSLllWkF7T2whnCFpE5aE1wH8Y8OCMx6xqog0mkpt4ycNEwO2LaVDig6fQnLHmRrwUOUCM71TMmghrv6Z03id6L1XkJfEywPm9ApdEb7bxhyEpkTg3FKLsdguXx2x4CifOl6RIgb/WEanxYIzIH5Y4vp8l8GIJ6QmZ/Bu/GCnxNysGPxC/3NZSC+E0ILIDHzZ7wvL/txDkLuywh5ZJE6VIqRr5HG28FCHtE5iA+Pn6BjAALzqoK7/sQY3EzvGOWBZ1JZZ8YGzrY9xLdU9JxzEMTFsou6DNTa9mXHcG9hP/eeC/KAF7nFuZciv++mLspAHqzXGjCGk5AC60KVCoPgavgz8dy06e93nNVihk+ktFdQe0nSgl745L3URv3gfamfbjvQDKjZMZ0suz5tr5nCpOUtwwiu8aLxqODZqyQ9xZvMpDEcCPgwk1gDW3/SC9XgSefR2uWkfuqFcfqiP9caVwFBfnXUMqHRcn3/2yUoZAebj4LkyXUaW7vjeXnumSETskrdcveUiuw2v23HCKbO4BI7TpAMZy8YQo4UqVIEVB61VxnfJ/JUWFbSfu6NlAKVOipSL2KLL51hHK+WxqRQ3ngIm137wEisnfej3ueyFukBxzZAxFEduSwRBrlbw9EENnfHoukd2QPRBDZkcMSaZS/PRBBZH97LJLekT0QQWRHDkukUf72QASR/e2xSHpH9kAEkR05LJFG+dsDEUT2t8ci6R3ZAxFEduSwRBrlbw9EENnfHoukd2QPRBDZkcMSaZS/PRBBZH97LJLekT0QQWRHDkukUf72QASR/e2xSHpH9kAEkR05LJFG+dsDEUT2t8ci6R3ZAxFEduSwRBrlbw9EENnfHoukd2QPRBDZkcMSaZS/PRBBZH97LJLekT0QQWRHDkukUf72QASR/e2xSHpH9kAEkR05LJFG+dsDEUT2t8ci6R3ZAxFEduSwRBrlbw9EENnfHoukd2QPRBDZkcMSaZS/PRBBZH97LJLekT0QQWRHDkukUf72gPU+Kz9L6Hr/IwlyhE2H1VmyZJI8eXJJ7ty5pHTJUlKzZjU/WxFJfqv3QIKvXihaMn4XHOo63uWFPTkcWGfIkF5i8uSRoV9+KjExeXXJI2GRHjB6ICCOvonIKChoXXrp0mXJnz9GxowaJvnzhe/t9kHrwFug4JBAZNc4XL58WZ575gl59unHXUGRX4f0wOIly+SVfm9aFrSz587JP/NmBb2VROQE08hBb+XNClKlSiUffvyZpE6dSh5/9JHEqjZSjw89cP58rOzYucuCyKfPnPEhd2CSBA2Rr4HgvXyJl5t7JjtIlZA0SQa6OCUuovEEadKkkYGDPpDixYpJkzsaekoaibvFeiBoiFyyeDF5e0A/uQSSwBNcArKfOn1G9u87ICtWrZFNmzbLlq3bJW3aNNps0VFR0u/1ARFE1vbOrRsYNEROnz6dVKpUMV49e/jwYel0X3fZvWevNv/BQ0dkyFffgsTooY2PBN56PeBIgUjOnDnlrz+mSNGihbUjkhKXJE6Z+rs2LhJ4a/aAIxHZNRQzpk6U1Djk6WD7jp264EjYLdoDQSMtAtWfhQsVlE1btlqKO3/+vJw9e1bSp09vifM1YCVo8n1798qRY8clfbp0huClRvWqQoFMMGHfvv2ybv0G2bd/v+TOlVMKFiwgJUoUl1QpgzscV65cEbLKDoF0O3nylGTNklkKFSwoFSvelrDP9XyeT1jZPuYObs/52AhPydrc1VLeef8TC3KR00GWT/lyZT1ld4s7f+68dOveyzhQXrhwMe46XHMilps6dWqDrPl59A8SlTbKHB2v5zlzF8irOKAePXpULl++YlsvD7gF8ueX0SO/k0yZMsWrLjXT7zNnyRtvDpJTp04LD9Y64MRl3a1bNpdBb72hSxIX1uquDnLg4MG4dz5wgrDfVMiARaZytXoItr8entLc5YvnWMZXLcvbu+MRmauV6/5l88ew4/bu2eczIt/ZpqOs37DhBqvvZqfrOp91cMA3bNgkZSvUkLq1a8qPw74yV+3z8x9//i3PPt9XuHukMLEW7erl5NqM3YeDX7nSbTJuzAif61ITbt68VTp37S7HT5xE3Td2GLt6jUvcYy/Iz+MnysTfpsiLvZ+Rhx/sphZpvHMXPA0uky/A+k6fPu0xqW5sPWawiQzuHmpTqT/B+/Yf0M52zvHsObJ5LerEiRNStWYD+XfjJmPW2w2mriBetD5/wT/Suu29umiPYQ90f1Qe6fWUXLx40Q2JPWa6Gck2rli5RqrXauRLckuajz/9Qpq3vgdszdNxSGxJpAlgvVxdBwx8V7r3CC0JquMRefrvf+gR+do1YxvWjEdc0Lp1/0q12o3kBFYljFG8gIO7ceNmqdewuVy9etWnMtq26yLz5i+UlAmgeVnvsePHpUadxj7V6UrU89GnZfDnXyVoq2a7Z8+dLw0at3QV6/hfxyPyBqykHFQVKBjJhYOSJ7j/oV5y/ZqePruGcG75F7ClpgFNHBsba7zbbXX7DxyUIV9+46k6I673S6/K6jXrbBGJk4GrNMW6rJM6JHZ1ssCjR4/JmwPf8VovE/z19xz5a/ZcjzuAIXFFnRcvXjJWX7uCSTeTj/9wzyfckjD/NSwi5j9P7Ten0z17yutWsZcXR9PIjz7+LAb7ghaR8+WL8fhpTz7d29hadZOAg9Grx4Nyf7fO0IPOHVcOyZhh34+Q74YNl5SprF0zcND70rZNa2jj2WvhHTp0COVZJw8RtnKlCtKqRTO5rXwZyZs3BrT4RVn370ZZA8T/YfhI5LNOWDbuO7TppT7PGxOO7zo4c+asdHuwl0RFpdVFG5PntvJlpXHD+lKseDHJmjmz7N23TzZgtxk/4TdjUqncGr7/9fdc8OynS+tWLYxyH+jWxUIj79q1W6ZOn2Gp9yLOGr2fewo72TVL3H8B17Xj+1+8b08B0UfWIUslsHTGjRnuWyuUVAew+r38yhsyD/SprmzScX0xsI/27K7kvPG6YuVqad2mg0RHR1viGbZs8Wzwp1Nb4lwBZIvVa9hCW3fFCuVl/FjPhzAi/HfDRhj0KVecLGBzff/NF1K+fDlXFZZfHqLuBkmyA0ihg6FffCyNGzfURRlhTVu0ke07dmnjedAc/PF70qypPZnS7/WBMuKnsW76Ltw97kCd33w1WFuuK/Dv2fOkR68nLf1FpaHD+7a5kgXtFziSLGiIXLZMKflm6GdyCVuYJ+BAXwZikjW2ZOkyGT5qrGzdug3sIP3KwrLSpYuW1csX2hbb9YFHZNHipdr4lcvmC9lC3uBvbNGPgN5UgQeoXVvXaSeJOe2ff86Wx556XjJmzCjLFs02R9k+Hz58xOBY6PRMuJr/PPpHbV5O/Jp179DS5Jz0s37/TYoVK6rNaw4cPWa8vPzqGwZpEh0dJUM++0jq1qllTqJ9dgIiW/dPbVP9DyTDvxpO3frN0r08zCc3mtITEnNg+r3cx70A5W0lVmQVSBP3fPgBn5CYeRvUr2cIW7hSmoGCk0lTpkune9uZgy3PjRs3kAVzZoCWtJIZlsQ3A3LmzCFPPdFTvvnOirDknpDGVLd/Zp00eZoWiblIDOzfzyckZjmdO7WXjVDa4t/Yn35gUMhA0A57RE6qZXJb8/anGxxdD3JgegAZ27dvq4s2wn79bbKcwyFOhVSgefu+9LwabPuO5stnn7xniee3TJ8+0xKuC8iRI4fXA6mar8rtlbXcEdbLQ6IOPrc5hPIw2/W+jrostmH9X/9fyCExPyZoiGzbU/GMIL1GRHz15Rc9ljBlygxj4qiJcmG18xdq1qhuoftYxtIVK/0tyuf0NMLlrqNCsmTJDQ6HGk7OxxFIDHXwWK+HdcFhGRY00iJQvcXtNFvWLDJp4lg3DoNd+QfANeBuYAau5OmiouWddz4yB3t9vg7uA8tifjMcP3bC/OrzM9lyR44ckcP4iwX7TQdnz56ztJ/p2A4dgh8CXZ0qpVWxim3mQe1WAUcjctMmjaRP72eh2FLA5/E4jxVKBSLB5m3bZNNWq/KRmlZ915E9KM7gOeu4Iub8C0DX0qKFugk0HsCMMKLViWbOw2fqeujAfTrdSMFDsq6N3MGyZcuqKyYsw4KGyDmyZ5NWLZtp6T1zTyZLnkyGfg3lHA3/c9GiJZDe2fNszeW4nmM19DHjiDzeEMhVhrff5MlTQHPtAEyu9JwACjE6dnkQli7b4pAyRZA06i6Abk6OPlSBO5mO+6GmC5f3oCEyhQav/s8zd8HViRSJku+qItppMPk/GfyFPP/sU66kXn/VMrxmiEcCIs6RI0e1iLx37z6p36glbBBvaNHFo3i/siQH7awFTFx/OCbaMkIoMGiIrNKVnvrkfy/1lgkTJxs6smq6Dz/5Qjq0vwc+LTxL8lz5bmz3x1yvcb9XsNVehHZZIIDcA0rqdNCwSWsDiXVx3O5pw3gNkq4b/WMlFjgRqWPta/+lTpPKQFgwNdyACH7hwgW3sHB+CRoi+9tpw4cNlSaQTkVBh8IMURCM3N2uM6Rxc83Bts9RYOSrQKSoBYX5IZ9/rEbF653l0ROSCs8+/5LB61V3BW7zpPM7dmwn9WrXArkUI9HgR6vpWN5xKAqVrVAdQp90avHa90wQuHCCkL1oBpqD7d69V0qXKmkODttn969Pws8sA0lgt/s6Q+7/q6UVJ6EU/vmQr+XJx3ta4tQAuteiLrEZSfi8ecs2yZw5k5o8YO9E1ukzrJp6RHrqFo8fO9KnuthW6zptn5VClEuXL2np4Qm/TfIolrYv1c8YK4luFGAeAz9L9Du5DYHldzkBydDv1T5yBRYUOhj49vvG4UkXZw7r1qWjlk1FlUiytoIFVIzRKcdQKPH9t74r5lMiSm08X4GOa8rarLoTQa5RmSjYEAV/I1TEUoEHXGr5JQY4CpHTQaFn5PCvtfQh3Qs8CGV1b1AHFh1ZwXdWgZKxRk3vVIMD9k7+sA6yZc2qJUN0aRlGfWIipz/w5JO9tMmp5/Hu+/6RUzTH+mrot9ry7AKjMG7XsSOpQDYi7RMTAxyFyPzgOqAh7ejDAwcPGSSGt46pVrWKNsmxY8ek/4BB2ji7wJde7gebt7ftouPCeZjUwVHU6evB7Z4O9xkKVLpyPIU1bFDP1h5vJDTafoGapi9w7vw5qVW3ibz/0WeGmZQveZgmO/jVOmENuVH+9revdarpHIfIbOBfMyer7TTeyfh/74NPcerXI40rU79X+hh6zK531y9pthHQruv7vzdcQba/Z6CCeHvVuvILtmfmGf+LlXY3Z84D38464KR8Ecr2noDchdr1m8iates9JbONy5olC3j2TbXxRKY+L78mL/R5RRvvChz07odyW6VaBonAflq6bIVUrdHAFe3xl+eSK1f0Y7JoyTIc4tsGnYMSNDXOhOgjs9daQp9486Yt2g5s2KAudGQ/08a5At/74BP56uthWqkXV0iSMVy5u3RuL0WLFBb6laPh58J/FuHAOcnCCiRnYPSIYVKjRlVXFW6/POyVLl/VVgBEJ+Z9+zwHpfqywgPaKrgiWLtmvQzHikk1TG9A6+sVS+dCXK+X1pEdWKREBXyHnr7mN6fFN2aHoKpU6ZKSJ1cu2bZjp2zfvsPglNB9r+5wRjKHmnBstyd4/Y2BMgpqoHbARYjkIfuZtDPPE1zFL1y8IPNnz4TVeEa7rF7D0e7g6SMnFJG5SpWvVFO7LXPQpk0eL2XLlPb4ka3bdoC9nX4yMCMHlwjIXwIHkn86kS/jST5MnjDaVkG+XYeusnrtOibVAicD62J1FKro6qIgaT8U+9WDozdEZoX7DxyQug2aaxHS3KAbbbihR8I2eALGL1n4F4wDrOcOc75Dhw7L7dXra7kn5nS65+VgrSYUkR1JWvBjqZPcHBYNLiQzdwBXiSeeesEcpH3mCpozR3ZtHAM5SDwEcvvlH5/tkJjpuYpnhomQHYwd/YNdlBHuqos8X11dtNqeOW2CYXbksSCbyLzw8P/2wNdshTWubK4J5A2J2fdz/pzmFYlZLu0n33itr6uKRP91LCKzJz779APDH7KuV3bCJGjEiNG6qLiwDBkyyIK5fxieO+1ouLjEHh4oybsdDhlXwbrEk70eJ8P3336Jg5de6uehCliSZJDfp04Ex0JPGnjKa47r2KGd/DZhjNdV2ZxHfWZfFSqQ3zir5M2bR422fe/R/QHp2OFu7cHPNlOAIhyNyPzGhx+637LNMpxI884H3llLXHW+hESv3ysvGvQjt2hfgKsRyZtiRQvLqOHfCldbX9hidevUlInjRxqcF5pweQKSGufg1f2etnfKiiXzpEiRQp6S+xxHu8J/1yyBGmcD4xtIPvkCnIDckfr2eVZm4cBN5zj+wlsDXpePP3hHcsERJRcA3Y5qLpN0MtVlEwoJPuw91/tlrTkTO+GZpx5LaPuM/Dx1XwFdrAKZ8I1w8LvrzlZqlO37uJvedLZu2w5a9IDRhcYWS8IVkBGreExMHqlerap0gelPGS90uG1FiBiFg9yUaTNkC6SKJ06elFhMDJpKZc2aGSyr7NK82R3yxGO8FcudTn362Rctpkukz98e8Jrfvu6Owa/d0G+GyYJ/FsuuXXtwsDsRR59TqYgacuS7U5Ova5d7pSWsvAMFNM+iXxKaTtEQ9RxUTmk1RE4OD375YmKkWrXK0qHdPfheRVnEj0ag/xJ+2POjPkcmpeTtOLwRZUiXXjIFUYTtpI8/dfK0nD57GpyL3Fq3B05qqy9tiSCyL70USeP4HiAiO55GdnwvRhroiB6IILIjhiHSiIT2QASRE9qDkfyO6IEIIjtiGCKNSGgPRBA5oT0Yye+IHoggsiOGIdKIhPZABJET2oOR/I7ogf8DHVNr+w/u2FUAAAAASUVORK5CYII=;imageBorder=default;" parent="1" vertex="1">
          <mxGeometry x="80" y="80" width="146.81" height="160" as="geometry" />
        </mxCell>
        <mxCell id="iGm5vL-j-1q0A82nJxlu-4" value="" style="shape=image;verticalLabelPosition=bottom;labelBackgroundColor=default;verticalAlign=top;aspect=fixed;imageAspect=0;image=data:image/png,iVBORw0KGgoAAAANSUhEUgAAAb4AAABmCAYAAAC0l/QfAAAACXBIWXMAABYlAAAWJQFJUiTwAAAgAElEQVR4nO2dd1QUVxvGnzsLCII9IraAXbEbFST23hUroMYSNYg9aowxiTHR2GNJotFo7NhQLLEl9hhEQewdEUVpivoZC8LO3O+PmV22zMCyS1ng/s7Zs7t32l1c95n3vo1QSikYDAaDwSggcLk9AQaDwWAwchImfAwGg8EoUDDhYzAYDEaBggkfg8FgMAoUTPgYDAaDUaBgwsdgMBiMAgUTPgaDwWAUKJjwMRgMBqNAwYSPwWAwGAUKJnwMBoPBKFAw4WMwGAxGgcImtydgKZ+HqgECXEsF6tgBS5vm+Y/EYDAYjGyE5NUi1cH31Pjqpb7IcUR8nluSR+/KqlyYFYPBYDCsnTwpfMH31PgySQUVCCihAAgACoGIzxwh6EzVzPpjMBgMhhF5TviC76ox85koaIJk4XEE4AGoAFCStm9nwmNpU2b5MRgMBiONPCV8e+6qMSPBRk/cBJLmqEwTwrSP1IUTsNSDiR+DwWAwRPKM8O25o8b0BHmfHiX67zVohLCrDY9lzPJjMBgMBvKI8O25o8YXsTZQIU3MgDTBIwaCZyiIAgF62PDM8mMwGAyG9Qvf7ts8vnoiCpahT09J8DT7Ob7lQQmQXFg8vqudgKUeLHWRwWAwCjJWLXx7bvH4IkalZ7npLnYKMkucJZ++g02yANt3alBCQDiAEoKUwhzelrJH6+LAcmb5MRgMRoHFaoVvzy0e0x6JAmVo2Sn59EomJaNw0ntxAwEoR8R9pffgCNT2HHpVs8UXjViqA4PBYBRErPLXf/dNHlOiuTRfnTSuFTqNBQjR6lMBcIl5Ddv34tKm5sFBfNYcJgBQvRdw4OZ7lLWhGFLPNoc+EYPBYDCsBatzeO2+yWPaAxU4SiRlAwgVH4L0UAkAlcZdU3lEdgRWdrHHRxVsAUJACAFHCMCJrylHIHAEhACUEy3I36+nYst1dW5/XAaDwWDkMFa11Ln7Bo+pkap00hOoNC5WaKkoCDjdQ99fN/XAW4THifU7BZ0lTkog+ftEn58ogAT+de0wuLZVGr4MBoPByAasRvh23+Dx+T1RxAwFTxPFqRu16crzON1LPkhl2sF3OB+vlqw9UeCojrWn6/ujBPCvbYch7izghcFgMAoCViF8Qdd5TL6jkhU8QD93TyBAJYHHGe/0hWrqobcISxB0glsoKCEQONFi1BU+yhGMcbfFkFpM/BgMBiO/k+vCF3Sdx5Tb+oJjKHgqpFl8FaiAf/qY5pqcevQdwuIFycKjIJyx4FGSZhEG1LLF4JpW5/ZkMBgMRhaSq8IXdI3HpBtpoqfSCJ6kPSppZlR6/yF4/NMvc1bZ1L/e4UICr5fTJ0i+PlEIxfBPje9vXE1bDK7BxI/BYDDyK7kmfLuu8Zh8zdinp5ukTnWE0JXyODvAvKXIaceScT6R14qexsLTWIACp/8+tLudBZ+MwWAwGNZMrpg2u67y+PyySpuuoJYeEACOT3tPpYcrb77oAcCi9vZoWiYtWpQSAATgdXL+oLPt2vNcd3syGAwGI5vIceELusJj0mUVBCqKmiYvTyWk5elx0gMC4AoeZ30sDzpZ3M4eni42ACfm+BHpQUnae03eH4PBYDDyLzkqfDuv8BgfwUHgAYGnYnI6TyULj4Lw4nueB3ieogJ4/OObdZGWi1vboZmzCgIoeAJoasIIoJLxKT4zGAwGI/+SY8K36zKPieEqQCBSJRYiWXxEsviIZPERcBRwJQJCBmV9esHiVnbwLGMDIvn2iOTzg/Tc4gMOdUsyq4/BYDDyKzkS3LLrMo+JF1R63RTUoLCBWIGFSpVYiPTsqhJwbmj25tRNOZuKf5MEvcou42qoMKQqy+VjMHIbQRDwKCYWb16/ReXKH8LBwT63p8TIR2S78O26xGP8BVFMbGCcjA7oR3W62fAIGZYz4nMtieLKcwoilUIbxERPS2JiEk7/cx4A8OrVawTv+wsN67ujXr2a6Na1LQqzHyI9LkZcQ9SDmEwdU6JEcbiUKQWXMqVRsmRxcBxLowGAmMdx8B0yCeER17Rjm9YtxoB+XXNxVtbL23fJOHjoBADgxo27CI+4DgDa/69KFHFyRNmypeFSxhmlS5csUN+/bBW+nZd4jDungg0ANYwT0w2F0M1WjdARVlg3894daMM+q1XP1ankFPMW/YbZc1bIbtuyfgn69emSwzOybgYOnoh9B/626BzuNavCz7cnfPp3Q4XyZbNoZnmP7r1H4tjJEKPx6xGHUbWKay7MyLq5cvUmPFr0s+gcFcq5YMTw/vAb2ANurhWyaGbWS7ZJ/M4IHhP/VWmjNTmd7go2gvgQpMhNjgKVVLz1id6dO+AXLkbK/MVIWbAIKYsXg1/2ExB5N7dnlq1QSrF5S7Di9q3bD+TgbAoON29H4utZP6Gqezv06DMafx87m9tTynHevkuWFT0A+DfkYg7PpuDwODYe38/9GTXrdcT3c3+GWs3n9pSylWwRvp0XeYz/R2WUj0d48TlVemjy+D7k1Dg30vqWGd//sADqa7dAeQGUp4Cagr9+CymLFgP38q/4hYVfQ1S08rLd4aOnkJDwLAdnZD6Xr9xEp27DjB4nT4fm9tTS5e/jZ9Gj72jMnLUEqamsfRYg3pAxsp8fF65Cx25D8fRpUm5PJdvIcuHbcZHH2H9URvl4MLDwOCmPz9WGR+hoK7P0APBzFkjzFtMstOaqAICn+Vr8tu3cn+E+wfv+yoGZWE5sbCJOn71g9HgY/Ti3p2YSS5atQ5eeIxAXl5jbU8kRCjvYo7lXY9ltzTwb5vBsCi4hoRH4ZMS0fGv5Zani7LjIY9zpNMtNkxNn6NPTjFexUyP0M+sTPQCgPAVVC9o27lSQWrpzVCzvIlCkLFgEu+lTgWo1cnu6Wcb79ynYGrgvw/02btkD/9F+OTCjvE1zr8YoVqyI3pggUDx9moRHMbFINOGu+mxIONp1HoKwc3vhWNghu6ZqNaxZOQf9fMbh5u3ItLFf56JG9cq5OKu8yRiZ/6OvX7/B3XvRuHUrEq9ev1E89uSZUPy4YCW+nTk+O6eYK2SZ6uwI5zHhtAoc9ANWAMCWit0VQCQLEICrHY/QAOsUPQBibrsgiRwFiGbiUjd4KkXqpCxYDLvp0/JN0MvxEyHp/mfQcOnKTdy6HYlaNavmwKzyLlvWL4GLS2nF7SkpqYi4dAMbt+zG+k27FfeLio7BlzMX4uels7JjmlZF5Uof4sK/wbh3LxoqGw7OpUuhePGiuT2tPMeY0X5YuujrdPe5dPkGpkyfh5DQCNntPy5chc9G+qJMmQ+yY4q5RpYsde4I5zH2lAo8hfZBBZ3X0rPWp2fL48JYy316lOeBZ8+AyHvismPsE+D1fxafFwBUtWqCqCmImoo+PjUVrUBBfAYvaH1/KfMXAXfvZMl1c5ut2zO29jTs2n04G2dSMLCzs4WnRwOs+vkHJDwKRd/enRT3/f2PHTh85HQOzi73sLFRoVatKqherRITvWykYYPaOH5kM+b/ME1xn8DtGbs+8hoWC59G9Dgdv7PmtR1Ne20rbXO14xE2zkLRi44G/fNPCMtWIOXbWUhZugIpy1cgZd58qJctAw3cCly+ZNElyMDeej4+IlAQXtffB9GMlXx/+UH8Xrz4H3bvPWo0/sXkUejVo4PR+KYtweD5/OkDyA2KFSuKLRt+wg/fTVbcZ+inU/H+fUoOzoqR3yGEYOL4YejQrrns9t//2JHDM8p+LFpr3BHOY+wJUTsFSMuCoBCkCiwCCARoxI/CtZCAC+MtFL1TZ6A+cQr841ixvx4AohK9hpRw4J8kgI+NB/4NhW3L5uBatQRczMuJKvTjDCRPnys2ChSkfn4qKq7lqqRKM5SAchTgCN7PW4RCM6YB1fOmz2/fgWOy4969OyLy/kOjPLXHsfEIOXcJLZrLByPIEXn/IW7cvKc3Zmtjg86dWmoTaJ8+TcLOoEO4fvMuYmLikJCYBDe38qhbuwZq1ayCpk3qw/XD8orXOHHqHP77T1yuPXVGPnrzn5BwlChZXG+sU4cWsLcvZPJnyQ4IIZg2eRTi4hKxcvVWo+2vXr/ByVPn0LlTK5PP+frNW+w/cAx37tzHg4exiHrwCADg5loBrq7lUL1qJfTq0d5sy0qt5hF+8RqOHT+LyKiHSEhIwrOkFyhWrAhcypRG+fJl0L6NF1o0b2LS3/fW7UjcvRetN+ZgXwgdO7QwaT5v3yVj3/6/cfPmPURGPULM4ziUKFEMDevVQp06NdDi48YoW9ZZu/+167cR9UA/2KlIEUe0bd1Mb0wQBBw5egapav0o29ru1bT5hYIg4MzZMBw+ehqPHsUi5nEc7OxsUdu9GmrXqoYaNSqjxcdNYGNjXVHshBAsX/I13Bt0NtoWFR2D5OT3ev92oecvIyFRP7K7jPMH8PRoAAB4/CQOGzbuxrWb9/Do0RM4ONijd4/2mDBuWLrzuBB2Faf+OY+YmFg8iolDbGwCPihVAq6u5VCxYjl81KA22rdrbvHfz+wE9h1hPMafEC9u6NPTIJYmE9XV1Y5H2ETLJkv3H0TK7v1SYiABIRSUcKIAEQBSzU2QtM7qNg0bgOvSCahY0byLXr+F99PngXIA4aQPxYk+PkKI2B6ek66vIgAhKPRV3hS/tp0GG631V3ariBuXj+C/12/gXKGp0TGfDuuPX5fPNvka38z6CYuWrTUaj38YCnv7QpjxzSKsWhOY4XkWz/sSYz4bBJXK+DvlXL6JSX5KQ8JDglGntnn/bkoJ7NF3Tqfr41Piv9dv0LBJDzyOjTfaNsinJ9atnp/hOeLiErHyty1YvXabSX+PMaP9MHHcMJMTmHmex+ate/HFjPkm/71/+G4yJgQMRaFCyj0vx06chXUbdhmNv3l+TfbfW7v97Tus+HUjli5bl+F8lsyfgc9G+cHGRoXBw6YgKNh42T75fzf13v/vf69Q5kNPo/2mTPoUc2dPQci5CPiP+xp3I6PTvbZHk/pYt3p+liXjKyWwm+LjM0Tp/87tq3/pfS+ateyHS1f0/z4N67vj3Jkg/LYmEJOmzTE6R9/enbB141KjcbWax+ate/Dzys16AU2KcyxdCgH+gzFmlC+KFTPvZs2spc7tYTwCjnMGPj2qfc1Jz5qUhiwRvWOnkLJtL+j7VEAtgKbyoKkUSFWLr9XSQ3qPFB5IVUN9IQLCkb+A16/Nu3CdWii0YIbo01MDlBedl0QtgAo6vj8pzw9qAe/nLgTu5K1lz6gHj2Qd3D4DuoMQgqJFnGT9T7uCDuHtu2SLr5/0/CU6dR9mkugBwNQZ89Gp+3C8ePE/i69tjRRxcsTCedNlt23dvj/Dv3n4xavwaNEXi5atNVmUVq0JRFMvb5w5G5bhvq9e/YcOXYfCf/w3mbrJ+Oa7pWji1TvL0zOSkl6ga88RmD1nhUnzmfLlPLTu4IdXr7ImJmDrtn1o23lwhqIHAOfDrqBOoy7YtsP6CkF81Kiu7Hhc3FOTjg/cvl9W9JRISnqB3v0+w5gJs0wSPQBIfJqE735YjmYt++OWiccYkmnh2x7GY+xxFbQlvKBZyiRaPx4g+vQ4ClTOAtHD/Wjwh44DKWqpSy0vZsCreSAVAC8AqVTKjAdIqhRZoxa3qc+Fg4ZYkLBcpxbsF84EoYLYvVYK0tH3/VE939/7OXlL/HbtOSI73qtHO+3rvt7GyyCvXr/B0b/OWHz9gPHf4nzYlUwdczYkHN//+LPF17ZW0lvaO3PmvOK2g4dOonlbH5NSJQx59foNOnYbil27Dynu8+5dMnr3H6MYCZgRdyOj0an7MDx//tKs4w15+jQJbToOyvT3JzziGsaM/xaUWtaM7FzoJXzqPyPTxw0fPR2PYmItunZWo1KZH/bx9OlzTJryg8n7R95/CI/mfRUr9WREVHQMGnr0xIlT5zJ9bKY+5fYwHmP/5rRBH5pnMb6DStVYqFSdhcLVTo0Lk7IgejP8MtR3HoCm8EAKFZ9TBdGqU/OgKRoLUABVqyFoLcI0C5A/dwF49878SdSphUILZwICD6oWxIcU7Qm1KLRUTdPGeQHvf1iQJ8SPUoqNMqH0ld0qon49d+17pR/iLdtMjwRV4vTZC2Ydt2pNIG4a+AzzC06OhWWDigDg4aMniuN9fcdafO0hI6bigUL1nk1b9qQrepXdKqJLp9bw8mykuM/dyGjMW/SbxfMEgOkzF5lkacmxe+9R2YCuzGDuDQAAfD3LeOkvN7l6Xf73ysUl43SGx7HxJlv/qalqDBk+RXYpP7P4DJqA+HjTLFINmRK+xf8AHNVYemnPYiUWIkXKiONV7QWETc6CPD1KIVy5DggCwItCp7HkRKuOB1ELIKkCCC+ApEpClCoAqRrLUAB/Jwq4ccuyuUiWH6DJ0Uiz/sBTECGtua4Y/SmWPbN2wi9elS1R5ufbU++9k2Nh9PM2Lk598PDJLC1v1KNbWyxf/DVCTu3EyaNb8euy7+BcupTi/rPmLNd7f+bEdoSc2omQUzsVk2/HB3yi3UfzsMacxM4d5CPtEhKN/96UUoybpOxvnTLpU1yPOIy3L67j3csbuHfjOGZ9PUFx/4DxsyAI+tYQpRRzF6yS3b99Gy88uH0KN68cRfDOlThxdAviH4ZixjR/2f1/Xrkp0z9Yhpw4dQ6BO5TD7T2a1MeW9UsQHhKMS6EHEBT4i2L0YlZQvaobJo4bhuAdqxAeEoygwF/wyaDeivvv3H0QV67eVNyek8TGJiiuEpR1cZYdTw8vz0b4cspo/L7yR8z+dhK8e3XUbluwZLWRj1CDc+lSWDJ/Bm5cOoLn8RGIvHkcW9YvQV0F//ur128wZsKsTJW0M1mZtl/g8eCtCppoTY6mRW/agEAtxleCA4WrvYCwyVkUtfQ0Canh18SzEwIxC14ABEh9/AAQAQAnphcQMeiE6gS7UCL23aMPH4M0Vr4LNYm67rBfMBPJU+cAHC9qoKASG9lSqcWRSor0pER8HbwPxLuXZdfNRrbvOig77i1jbQzo20U2EGDv/r8x6lMfi+fyZ/BatG/rpTfWzLMh+np3xpARU/H3cePCzecv6C9x1axRRfs6Pl6+pmjtmlXRqGEdi+eb3Sj94MTFG/vIDh0+Jfv3KerkiL1Bq+HVTP+7X7FCWcyY5o8eXduga6+RRj96J8+E4tSZ83rRjQkJz2R/HOvWroF9u1cbBZ8UL14Us76eABuVCj/M/9XouPCL19C9W1vZz2gKc+YZn1PDL0tnYeSIgXpjtWpVQfdubbFn71H4DVVOGzGH9m28sHvHSr3AnTq1a6B7t7bo1b2DoiV++cptvZWV3GLaDPmAqcpuFTMV7VzZrSKOH9msFzmrS1xcouK/m5dnIwTvXKkXtFK4fFn061MW3r06YtLUObLpFYePnsLxk+eMfjuUMNniW6R14xCtT0/zXnecowRTTYs6No1nzwBBABEE0eoTeNHy44W0hyAAglrHItRs49MsQjUPmphFhZXruqPQsL7QWH6ESnPgqZhfwRMQQdRn0fdnvR3d379Pke3EUL2qG2rXNq5G0769/N3yxnS6OZjK5j8WK35xixcvihU/fSO7LfFpUpYFKVgbH3xQQnY8VibYYNvOP2X3Xb1yrpHo6VKndg2sXfWj7Lbdwfq+30cxcbL7de3UMt2Iy/HjhsqOX79l/jJ1fPxTxWXGRT9ONxI9Xfr07oQNvy80+9qGNG5UF9u2LFeMVu3WtQ0+HdZfdlukmcu0WcnmrXsVl3xHDJeftxwVyrngyJ/rFUUPAPb/KZ82VaGcC/bvWaMYqalSqbDip2/RrUsb2e07g+S//3KYLHwNyqT1FRKjN6UqJpKPT3wWH8fuZGEVdUEAVaeC8mpQtVp65kEFaUyQ/HySyFFB3Aa1Wt/Pl8IDKalZNi3i21crulQSPioIop+RF7R+QPAUgqVLrNnIiZPnZNflfX16yuwtFhH26d/NaDw84hru3ntg9jy6dWmD/n3TbzRaya0iBinMS8kfldcpUaK47HiiwU3c6zdvZS3xVs2b6i0xKdGxQwu0aWkcqr8r6BBSdP7fOBaWb0AcGfUo3fMXLeKEvw5uRFDgL3qPwb7y/56mcEQhqMq9ZlWM+Wxwhsf7DOgu+5nNYcVP36CIk2O6+0yeMEJ2/O79h1kyB3OIfvgYvkMmYVTAV4r7DBpo+r/RrK8n4MOK5dLdZ7NCLeBF87+Ek2PhdI8lhGDB3C9kt23autfkCHOTlzpFhUyzXFSUgCNiUCVHAV5rCQLB0TZof4GHT9MsWO4sVky0pgAxX45K+Xs8pM7pRFpm5MRlTmm5EyDSM7QdcEkRJ8vnI8FPnw3R4oPUdgJSDiGk+XLSn4uCq6XcBTm32apQjqh3j/aKx/Tv01V2eXTn7kP4+kvzAis8mjYwab/atarJjsfGPkX9emZd2qpJeS9/s+bgoC9AZxVSEHwHdDf5Wv36dMZJg4T/V6/f4Nbte9qluJo1q6Cok6PRzdLuvUdRedZPmDljrOKyWMvmTUyeiymEhMr35xvi19vkBOeJ44YafWZzMCX/s5KbfH5kVAY3Deayak0gXGSWyt/89wb37j/EnbtRGaYQTJn0abrWmyEfNayd7vakpBcIj7hmNF7UyRE9u7eTOcKYqlVc0alDSxz92/jG5/yFy2jTKuObGZOF7/chNtg1GwAobGiaT08l+fw0zwAFD4KxRziA8PBpYqH4lSgGmyoVoL4bDfAcwBGtb49Koic69ASIYoc0oSMcKAgIJaAAUCH9OxFTUX8xC6nhN0CkuRCxbg2IwAGgAMcBlBfnSTkQd+tMZn/58pWsleBes2q6gR5t2jSTHd+wcTe++mKMtgJLZmjcyDR/m5vCj0d+LZ32LOmF7Hi5smX03sc8ll+CJByHc6Gmle9Tq+X7/iUmPte+VqlUaNXKAwcOnjDab9GytVi9dhsGDuiObp1bo0njeihVSn6pNiuIU/LfusvfHMnRsqWHxfPw8mwEOzvbDPdTqVSo7FbRKJAsO7+7s75fZvaxXp6N8N3XEzN1TPUMOmjI+aYBoFfP9ukulRvStZO88JmaH5qpsMtVnQWMOaL5USMgkq+PEojiQsT3Kmnc/4gKgIXi5+QEVV13qG9FaUxLyZITRRC8aP5qgl8oEYVOnCIFAQE4Dlyp4iC1Lbe81FO/hfriNW2gDaG6tjDVWnmQjED7Qd5AFlw3O1AqUeYzsEe6xxV2sMcgn55G1uLj2HiEnr+crj9JCSVLzpCiRYtkvFM+4lnSc9nxcuX078KVGgN/Ni5zlTvkiDc494hP+ssKHyBaiL//sUMbgFC9qhtatfRAy+ZN0KaVJz74oKTF89Hw5Il8KLy7u+nRuYUd7NGwvrtihKEpNKhfy+R9S5Ysnm6TZ2uhYX13bN3wE2xtTZeIurVrZGhpxyfIR402yGRwT213+W44pkYJZ0r4fD04AALGHhaXHAWS1qpHKscJQCeWgwL+hzhQ8PC1QPw4j0bA3sOgySlpy5gcD8ITqT0QB6qx/DgKCk5nP3FCdq2bAeXNq9mpQT1lJlLDrknnJWmWJlFJWfxiJCehFBQE9sMHAD7eFl0zO9kcuFd2/NvZS/HLyk3pHqsU9rx9159mCV96JawKMrfu3Jcdd3bWT+94EpeQbXMwTFXp0rkVAjcuNSkq8m5kNO5GRmuFsFXzppg8YTg6dmhh1sqALo9lrNyiTo4oX84lU+dxdras5Y7hsnNeZ6z/YMydPSXTdWtNWV429E1ryOzKQKmS8vvHJZgmfJn+5vl6cPi1i6hwHCVSXp/+w3B8/CEVtoVbYM5/7AX7/t3BCTwIz4OjAjheAKgAwvOAoAZR8wCVoj0F6ZmqAV6ATeUK4Npalruj/vwrpIZeEfP3IAb5EMm3R6T28oSKKQ2gFPbD+oP49rHomtnJg+gYnA0JV9ye+DQp3YcS23ccQHLy++yYcoEkeK98p/uyZfTrf756ZWZJPhNIkVkC7dO7E3Zt/Tnd/Eo5Tp+9gN4DxqBXP38kyuQiZgVE49s3EWsrGJ0bFHVyxISxQxEeEowlC77KtmLtb9/KFxHJ7M1DIXv5peXXJibQm5VhrrX8Dmo6M4gGj26ndTUATjIBBRCM/ZMDoeYve5I+vWD7LAkp+4+JEZycJoAFAAgox4kTIAABAZUsQlWVsrAd1A+oYX6jWPWkL5Fy/rL4H4qXrEmOiD5GjdVJxB6EAGD/qQ+IX1+zr5cTBAXLlyizlFev3+Cvv/9Bz3SCYxim8SA6BtduyFfSaGQQRKB0x5xZYUp8mmR0jIvCOXp0b4cunVvjzNkL2BK4L91EckP+Pn4WnXsMx9lTO1HYTIupQoWyRsEZr16/QWJikpFFnB5Ky8T5gRVL5FOAAMDJyRHlypVBWZfScHOtkCOrLkrf05cvX2XqPEo3es4mLqWbXVpFV/x0e/HpoqnyIhDxdcBBlRjw0tgM8StfDqrhg1HIxgbvdx8Sc+U0vj2OALygk+DOgfCAqmYV2A71Adq1NvNTAuoJ05B6/oroKyQQk/NAAIHTRnESKgbaEFAU+tQHZNAAs6+XE1BKZXP3soqtOw4w4csC5MrIAfLBR0odIK6GH8zWRq42Niq0bd0MbVs3w9JFX+H8hSsIvXAZ/4ZczLAM3c3bkVj3xw6MHyuf45cR5co6y0Yl3rpz32ThS01V4+7dKLOub+2MGe2H0SN9c3saepRRWFY2dYlSg9JqQVmDoC8lLKop5uvBgVAB/pLlp+fjo/q+PkF6DtivAiDAp7EZ6/tubuCmToRDrRpQHzuJ1H8vQgyuEc+lsby4ci6w69gWpGMboLr5ll7quClQn7sktjniJJXTCC5HQSTrj0pRpIVGDwIZrJw0ay1EXLquWNuwelU3k8/z9m2ybK29fQf+RlLSi2yN6MvvXLl6E/OXrJHd5utjHHxUtoz8D0r0w8doUDxnqoIUK1YUHTu00NZ0TU5+j7MhF2iDumIAAA5eSURBVLEz6E9s2irvTz7zb5jZwldG4TPfuhWJVi2MW2jJEXr+slktrBjmoXRDcvr0eXw59TOTz/OPQvqOqTc8FhfT9PEULb8xf3LQBFNyFDoNaI0LlwTsF48xS/wcHIB+3rDp3QM24ReB+1EQ4hNA1GqgeAkQ1w+B+vUAE5VfkUtXwP97Uez7B4jVY7i0zyhWSRMAKhbttvcfBDLE8pJdOcGOIPnK+wvnfpFho0hDAiZ8hz827jQa33fgGEYoVKpgpM+bt+8w0n+m4nbvnsYJ6VWquMnue/DIKTSonzvlsOztC6F9Wy+0b+uFAf26o7v3SKN9Tp8+D0EQzAp0ae71kWweavC+v+A/2s+kc6zbkP+6i1sz5cvJ/y6fPBOKly9fmbQ6QSnFPoXqL9WqmtbjMAuqSIviR4mAgAMc1EgLc9GEs1BIy4E6Aui/zwLxAwAbG8DTA/D0MK+pYAaof18vFj3lqZiPxxFQQcxdJBwHQZMfyFE4+H8CMsS6lhSUSElJxYaNQbLbzFme7NO7o6zwbdyyx6qFz7CLtrXw8NET9PMZp+jb69Wjg2wD02YeDWUTy9dvCMLEccMyrIgBiNbPkuX6TYKLODlh2eKZ2jSS6TMXaju4a6hVvQq+/y79CM/2bb3QoV1zo1qiGp+cOc16O3VoKTt++uwF7DtwDL0y+D6f/TdcsU4tI3twcLCH38Cesv7gJUvX4ofZn2d4jn0HjsmuWFV2q4i6dUxLHcsyzfD14LCyhwA7GX8fMRjTqO24fRy2X7SsF1b2IZVoAwXRRHFS6TUEKXCHwsF/CMgnpt1dWgMnTobILu00blTX5M7burRs3gRFZUo1nQ+7gvvZVJEiMyhF7MUo1JzMLf57/QabtgSjSbPeiqJX1MkRvy6bJbvN1tZGtszc49h4zPx2SYbXf/cuGaMDvsKBgyf0HoE79oPoWGNh4VeN9lm49HdEP3yc4TUeKuxTsqR8WbaMKFeuDBorNE4dOHgCTqXTszDi0nX0GTDGrOsyLKN/H+MOL4BYACEsPP2einFxiZg6fZ7stkF+pjcCyFJjydeDw889hbRWPdJDKvEJKmYgIFV65ikwKtg6xU/VsIGUDiHVAeXT+uyJDx72Y4aADB2U21PNFIE75Au5KtXAzAg7O1sMVCiLtSMo9++mK1aUz90MCj6C9+9Tsv36CYlPkZiYpPdISHiGW7cjcfJ0KAK378f4ybNRunwTjB47M11/08Z1i9NNAFeqe7l67TYETPhOsY5h5P2H6N3PX/Yueqz/YL0alG0VykEN/XQa/ktn7kF7Dsuev3pVN5OqnigxS6HtFAB07jEcEz7/Hjdu3EVKSirUah6R9x9i5qwl8Go9gPn2cok2rT0Vo41btPPFocOnZLfduHEX7ToPUezh59Pf9PJ8WbLUqYufBwdCeATsTbvTNvT1adMdKGAHYEywWOrL5yPr6WJARg0HlknBBRzSWh9R8aX9hOHAsCG5OcVM8/LlK+zcLS9GPbqb3xqmT+9Osq1CtmzdixnT/DOdV5WVuCpYsVHRMejScwTGjRmCCuXLghCKRg3rZKpskil4tOiXJeeZMulTdOncKt19mjSuj7H+g/Hrb1uMtv2xcSeCdh/EZyN9Ub9+LTgWLoyoB49w5dotxcATABg5XD9CuW+fzpizYKXRfufDrsDj4z74fOIItGzRFM6lS+H5i5eIevAYO3YdUCxMPMhPuVedKXRo3xz9vOVbZQHAmnXbsWbddouuwcha7O0LYeO6RejSU75odx+fADSs747evTqikJ0dOAL8ExKuWC0IAOb/MA1VKn9o8hyyXPgAwLepChQ8xgTr/4hwEAVPkhBo7DwBwJjdBJRQ+DayHvFz2LwSbwePARE4UIhLnSAEhSaNAoZ/ktvTyzRKXxwvz0aoYEFVmxYfN5H1L0VFxyAs/BqaNsm96tGFHexl6yMCYuds3bY24SHBJhUbzmnW/TYPg3xNW8b5ftZkHD5yWvbzvnr9BouWrZU5Sp5VK2YbpU3UqlkVY0b7YdWaQKP9o6JjMG6yciNcQ5xLl0LAZ5avmCye/yUiLl03qxRY40Z1UabMBzh4+KTF82CYTptWnoo3aQBw6cpNk8vIeXk2wriAzP0eZ0dcCADAr6kKv3nrV2sR+/WlvdYdB4CAIIJtEVnY0shSGjVE4ZuhcNj8Kxwmj4LDxJFwuHoWZIR54de5zRaFEmUD+6XfDigjbGxUiuvr23aantScXSya92VuT8EsKrtVRNi/e0wWPQBwLOyAg/vWwt3CbvKzv52E4UPlg5Pmfj/V4i7mRZ0ccWjf2gxb+ZiCi0tpnDm+TdHfp0SFci7YsXU5HOzzV8mxvMKP30/FqHR6JppCm5ae2BX4c6ar72Sb8AGi5febNy/GiOj4+jSvDX2AAgX8d+Wc+I3YJz7q/wJsv5HOjo0agowcDowcniPzyg4ePnqimFDcs7vlyebevTrJjm8N3JcjvrT06Na1jWwPQWulU4eW2L55OSLO7zc5Sk2XSm4Vcfr4NvTq0SHTx1Yo54L1axZg+pTRivsUdrDHzq0r8JmZydFeno1w5sT2LLWuP/igJI78uR6zv50kG2xlyHffTMTViEMoX84l33b2sHYKFbLDz0tnYdUK01cJdBkf8An271ljVr5wtix16uLbVAUQAf5BnNanZ5jXZ+gDHLdLzIDPzmXPEXuB/RfTrjtuOzCvDHBlXLZdMle5GHFddry5V+NM9dtSwsuzkexy56vXb3Av8oH2R85eoZGpjYlV4B0UagjaZ1D2av3vC9G/T1fM+GaRYvK+JTgWdsj0MUWdHFGliis+/LA8ypdzRrUqbujZo12miyzLUcTJETu2LEfEpetYuz5INuVEl8puFfH5xBEYMsjbpNJVDg72WL7kG4weMRA/r9qEPcFHMwwW6dKpNYYN6YOe3dul6/ctrPC3zMhX7ORYGNOnjMb4gE9w8NAJ3LkThajox3gUE4syzqXg7l4NNapVwsfNPtL7zt+4edfoXHLiqbKR/45mps6knIVbpIhlVq+9gsXqVDjjFBZzcZRJjzG3WPfwof3RvWtbbN22H7+s2qwYvAKI/y6jRvpg6OA+qF6tklnXAwBCKc0R82rbBYqAIN0SZsYCaBj8smYg4Nsw6+dSbwXwINFY9SkB+nwE/GGZv51hxVBKkZiYhMdP4hDzOB42KhXeJSejRIni8GrWyOy6kdbO6zdv8TD6MWLjEvHkSTwK2ReCk2NhVK5UEW6VKpol3LrwPI/rN+4gLu4pnj57AZWKw9u371C6dCmU/qCkFFBj2TWyg7fvklHSxbibiEeT+jh9bFsuzKhgw/M8Hj56gtjYRDx+Eg9BEMDzAsqXL4NyZZ3h5lohSwpo55jwAcC2MAEBu9JWVw2FTxvtqSOMK7NY/OqtAJ4kyF9fw4s5WXc9BoORPSQnv8fAwRORbJCm4dm0PmbPyrhlEgDMnrMC8xb9ZjTuN7An/lgzP0vmybA+sn2pUxffJmIsp/9O/dqeGlJ0Sp6lALChQIB005UV4ld3ORCdkCawNjpLrLoW6PbrgI9pDcEZDEYuYWdni0uXbxi1yTp99gJcXStkWDnoz4MnZEUPALp0kq8Kw8gfZGtwixy+TTj8NhCyHR3sdKI+dRU5YBuw7bJl1623DIiNTzu/nUxUqeFrBoNhvXAch+FD5HteBkychV79/LF3/9948eJ/ANKWuUPORaCvz1j085N36DuXLoXeMvVQGfmHHF3q1GVbODBayivVWmDSNiUf4G9+5ll+9ZcCUQnG5q3cUueHLsC1iZm/BoPByHlevnyFxs16pxsQkVm2bVoG715M+PIzOW7xafBtDKzxSavjSUywwPwDM2/51V8KPI6Xt+R08wo1fGV+ARMGg5HDFC9eFIGblpmUwmAKi36czkSvAJBrwgeI4rfaV6zbqVvLkxebImhfa8YFCozeYrr41f0JiIrTzx80zBvUHfduAvhmLgeWwWDkMk2b1EPImSCLkvaLOjnij9Xzze4NyMhb5NpSpy7bwoExxhWQFKM+VQT4dQjgV1/5nPWWAE/i06JE5dA9f9+mwB99MzlxBoNhNajVPIL3HcXCJb8rdrgwxLl0Kfj59MAXn482u0sEI+9hFcIHAIEXKfy36CuUYV6foQ9w5VB58au7GIiOz9hnqKGvJxM9BiM/ERubgH/PXcTNW5F4lvQCz5+/hKOjmEfo4lwazs6l0MyzIRo2qG1WE1xG3sZqhA8AAiMA/83G4xwRlyQNLTeBAGs+AXx0xK/uYtGnx1PRMpRDVwC9PYENTPQYDAajwGBVwgdIlt+mtAovgLzFp8tvw0TLr84iIDou4/01eDcDNmZN1xgGg8Fg5BGsTvgAyfLbmPaeI/pCpkFJ0EzZv68nsD79/FYGg8Fg5EOsUvgAIDCCImBD+rU9NWRWGPt6MdFjMBiMgorVCh8gWn4BG4zHjbo7KPgA5fbv4wVsYKLHYDAYBZYcrdWZWfykoumfrTfYYNDGiKMAD+P2Rob7e3/MRI/BYDAKOlYfx+vXCFg9wvTKK0rjfb2AjQOyZ44MBoPByDtY9VKnLoERwKg/xNem1vbU0K85sN6yDvcMBoPByCfkGeEDgG2XgNFrM+nTaw5sZKLHYDAYDIk8JXwAsPUyMHoNAFCoICocJeJ7QF8JvVsAm3xyeIIMBoPBsGqs3sdnyKAGwJrRgK7IEQoQqi96fZsz0WMwGAyGMXnO4tMQeAn48SDw8Inxtj4tgY2+OT8nBoPBYFg/eVb4NGgE8KMq4nsmeAwGg8FIjzwvfAwGg8FgZIY85+NjMBgMBsMSmPAxGAwGo0DBhI/BYDAYBQomfAwGg8EoUDDhYzAYDEaBggkfg8FgMAoUTPgYDAaDUaBgwsdgMBiMAgUTPgaDwWAUKP4PV2zWBrv6DIAAAAAASUVORK5CYII=;imageBorder=default;" parent="1" vertex="1">
          <mxGeometry x="240" y="168" width="314.82" height="72" as="geometry" />
        </mxCell>
      </root>
    </mxGraphModel>
  </diagram>
</mxfile>
